<svg xmlns="http://www.w3.org/2000/svg" xmlns:xlink="http://www.w3.org/1999/xlink" width="825" zoomAndPan="magnify" viewBox="0 0 618.75 181.5" height="242" preserveAspectRatio="xMidYMid meet" version="1.0"><defs><g/><clipPath id="89db0ebee4"><path d="M 0.726562 0 L 617.773438 0 L 617.773438 181 L 0.726562 181 Z M 0.726562 0 " clip-rule="nonzero"/></clipPath><clipPath id="c2f90afa50"><path d="M 394.359375 1.316406 L 439.984375 1.316406 L 439.984375 107.523438 L 394.359375 107.523438 Z M 394.359375 1.316406 " clip-rule="nonzero"/></clipPath><clipPath id="b5c13a6709"><path d="M 394.359375 1.316406 L 439.984375 1.316406 L 439.984375 107.523438 L 394.359375 107.523438 Z M 394.359375 1.316406 " clip-rule="nonzero"/></clipPath><clipPath id="86b53a926b"><path d="M 96.296875 22.605469 L 202.503906 22.605469 L 202.503906 107.871094 L 96.296875 107.871094 Z M 96.296875 22.605469 " clip-rule="nonzero"/></clipPath><clipPath id="087456c251"><path d="M 96.296875 22.605469 L 202.503906 22.605469 L 202.503906 107.871094 L 96.296875 107.871094 Z M 96.296875 22.605469 " clip-rule="nonzero"/></clipPath><clipPath id="7a94e7dccd"><path d="M 202.746094 6.929688 L 308.953125 6.929688 L 308.953125 107.902344 L 202.746094 107.902344 Z M 202.746094 6.929688 " clip-rule="nonzero"/></clipPath><clipPath id="7b91cbd3f7"><path d="M 202.746094 6.929688 L 308.953125 6.929688 L 308.953125 107.902344 L 202.746094 107.902344 Z M 202.746094 6.929688 " clip-rule="nonzero"/></clipPath><clipPath id="ca57241087"><path d="M 309.199219 1.316406 L 394.464844 1.316406 L 394.464844 107.523438 L 309.199219 107.523438 Z M 309.199219 1.316406 " clip-rule="nonzero"/></clipPath><clipPath id="21295c582d"><path d="M 309.199219 1.316406 L 394.464844 1.316406 L 394.464844 107.523438 L 309.199219 107.523438 Z M 309.199219 1.316406 " clip-rule="nonzero"/></clipPath><clipPath id="7eb7e8683e"><path d="M 9.71875 0 L 94.984375 0 L 94.984375 106.207031 L 9.71875 106.207031 Z M 9.71875 0 " clip-rule="nonzero"/></clipPath><clipPath id="1b6ffe6ef5"><path d="M 441.226562 0 L 496.574219 0 L 496.574219 106.207031 L 441.226562 106.207031 Z M 441.226562 0 " clip-rule="nonzero"/></clipPath><clipPath id="2af0767788"><path d="M 441.226562 0 L 496.574219 0 L 496.574219 106.207031 L 441.226562 106.207031 Z M 441.226562 0 " clip-rule="nonzero"/></clipPath><clipPath id="82cb702831"><path d="M 497.96875 15.871094 L 604.175781 15.871094 L 604.175781 106.371094 L 497.96875 106.371094 Z M 497.96875 15.871094 " clip-rule="nonzero"/></clipPath><clipPath id="a4c870ff07"><path d="M 497.96875 15.871094 L 604.175781 15.871094 L 604.175781 106.371094 L 497.96875 106.371094 Z M 497.96875 15.871094 " clip-rule="nonzero"/></clipPath></defs><g clip-path="url(#89db0ebee4)"><path fill="#ffffff" d="M 0.726562 0 L 617.773438 0 L 617.773438 181 L 0.726562 181 Z M 0.726562 0 " fill-opacity="1" fill-rule="nonzero"/></g><g clip-path="url(#c2f90afa50)"><path fill="#ffffff" d="M 434.777344 31.800781 L 434.777344 36.855469 L 439.828125 36.855469 L 439.828125 107.585938 L 394.359375 107.585938 L 394.359375 36.855469 L 399.410156 36.855469 L 399.410156 31.800781 L 394.359375 31.800781 L 394.359375 11.59375 L 399.410156 11.59375 L 399.410156 6.542969 L 404.460938 6.542969 L 404.460938 1.488281 L 424.671875 1.488281 L 424.671875 6.542969 L 434.777344 6.542969 L 434.777344 11.59375 L 439.828125 11.59375 L 439.828125 31.800781 Z M 434.777344 31.800781 " fill-opacity="1" fill-rule="nonzero"/></g><path fill="#4d769c" d="M 399.410156 41.90625 L 434.777344 41.90625 L 434.777344 102.53125 L 399.410156 102.53125 Z M 424.671875 11.59375 L 424.671875 6.542969 L 404.460938 6.542969 L 404.460938 11.59375 L 399.410156 11.59375 L 399.410156 31.800781 L 404.460938 31.800781 L 404.460938 36.855469 L 424.671875 36.855469 L 424.671875 31.800781 L 434.777344 31.800781 L 434.777344 11.59375 Z M 424.671875 11.59375 " fill-opacity="1" fill-rule="nonzero"/><path fill="#ffcd03" d="M 424.671875 16.644531 L 424.671875 26.75 L 419.617188 26.75 L 419.617188 31.800781 L 414.566406 31.800781 L 409.515625 26.75 L 406.722656 25.242188 L 406.722656 19.601562 L 409.515625 16.644531 L 414.410156 11.59375 L 419.617188 11.59375 L 419.617188 16.644531 Z M 406.722656 93.84375 L 419.621094 97.480469 L 424.671875 97.480469 L 424.671875 46.957031 L 409.515625 46.960938 Z M 406.722656 93.84375 " fill-opacity="1" fill-rule="nonzero"/><path fill="#f6f4da" d="M 419.621094 92.429688 L 419.621094 97.480469 L 404.464844 97.480469 L 404.464844 46.960938 L 409.515625 46.960938 L 409.515625 92.429688 Z M 414.566406 31.804688 L 414.566406 26.75 L 409.515625 26.75 L 409.515625 31.804688 Z M 414.566406 11.59375 L 409.515625 11.59375 L 409.515625 16.648438 L 414.566406 16.648438 Z M 409.515625 21.699219 L 409.515625 16.648438 L 404.464844 16.648438 L 404.464844 26.75 L 409.515625 26.75 Z M 409.515625 21.699219 " fill-opacity="1" fill-rule="nonzero"/><path fill="#f6f4da" d="M 414.566406 72.21875 L 419.621094 72.21875 L 419.621094 77.273438 L 414.566406 77.273438 Z M 414.566406 62.117188 L 419.621094 62.117188 L 419.621094 57.0625 L 414.566406 57.0625 Z M 414.566406 16.648438 L 414.566406 21.699219 L 419.621094 21.699219 L 419.621094 16.648438 Z M 414.566406 16.648438 " fill-opacity="1" fill-rule="nonzero"/><g clip-path="url(#b5c13a6709)"><path fill="#ffffff" d="M 434.777344 11.59375 L 439.828125 11.59375 L 439.828125 31.804688 L 434.777344 31.804688 Z M 424.671875 31.804688 L 424.671875 36.855469 L 404.464844 36.855469 L 404.464844 31.804688 L 399.410156 31.804688 L 399.410156 36.855469 L 394.359375 36.855469 L 394.359375 107.585938 L 439.828125 107.585938 L 439.828125 36.855469 L 434.777344 36.855469 L 434.777344 31.804688 Z M 434.777344 46.960938 L 434.777344 102.53125 L 399.410156 102.53125 L 399.410156 41.90625 L 434.777344 41.90625 Z M 424.671875 11.59375 L 424.671875 6.542969 L 434.777344 6.542969 L 434.777344 11.59375 Z M 414.566406 77.273438 L 419.621094 77.273438 L 419.621094 82.324219 L 414.566406 82.324219 Z M 414.566406 62.117188 L 419.621094 62.117188 L 419.621094 67.167969 L 414.566406 67.167969 Z M 414.566406 21.699219 L 419.621094 21.699219 L 419.621094 26.75 L 414.566406 26.75 Z M 409.515625 6.542969 L 404.464844 6.542969 L 404.464844 1.488281 L 429.722656 1.488281 L 429.722656 6.542969 Z M 404.464844 11.59375 L 399.410156 11.59375 L 399.410156 6.542969 L 404.464844 6.542969 Z M 399.410156 26.75 L 399.410156 31.804688 L 394.359375 31.804688 L 394.359375 11.59375 L 399.410156 11.59375 Z M 399.410156 26.75 " fill-opacity="1" fill-rule="nonzero"/></g><g clip-path="url(#86b53a926b)"><path fill="#ffffff" d="M 202.734375 33.253906 L 202.734375 107.761719 L 154.839844 107.761719 L 154.839844 65.1875 L 144.195312 65.1875 L 144.195312 107.761719 L 96.296875 107.761719 L 96.296875 27.933594 L 101.617188 27.933594 L 101.617188 22.609375 L 192.09375 22.609375 L 192.09375 27.933594 L 197.414062 27.933594 L 197.414062 33.253906 Z M 202.734375 33.253906 " fill-opacity="1" fill-rule="nonzero"/></g><path fill="#4d769c" d="M 197.414062 38.578125 L 197.414062 102.441406 L 160.160156 102.441406 L 160.160156 59.863281 L 138.871094 59.863281 L 138.871094 102.441406 L 101.617188 102.441406 L 101.617188 33.253906 L 106.941406 33.253906 L 106.941406 27.933594 L 133.550781 27.933594 L 133.550781 33.253906 L 138.871094 33.253906 L 138.871094 27.933594 L 186.769531 27.933594 L 186.769531 33.253906 L 192.09375 33.253906 L 192.09375 38.578125 Z M 197.414062 38.578125 " fill-opacity="1" fill-rule="nonzero"/><path fill="#269dc5" d="M 186.769531 43.898438 L 186.769531 97.117188 L 165.480469 97.117188 L 165.480469 54.542969 L 133.550781 54.542969 L 133.550781 59.863281 L 128.226562 59.863281 L 128.226562 97.117188 L 117.585938 97.117188 L 108.640625 94.039062 L 110.007812 44.367188 L 117.585938 33.253906 L 128.226562 33.253906 L 128.226562 43.898438 L 133.550781 43.898438 L 133.550781 38.578125 L 144.195312 38.578125 L 144.195312 33.253906 L 170.804688 33.253906 L 170.804688 38.578125 L 181.449219 38.578125 L 181.449219 43.898438 Z M 186.769531 43.898438 " fill-opacity="1" fill-rule="nonzero"/><path fill="#f6f4da" d="M 112.261719 38.578125 L 106.941406 38.578125 L 106.941406 97.117188 L 117.585938 97.117188 L 117.585938 91.796875 L 112.261719 91.796875 L 112.261719 43.898438 L 117.585938 43.898438 L 117.585938 33.253906 L 112.261719 33.253906 Z M 112.261719 38.578125 " fill-opacity="1" fill-rule="nonzero"/><path fill="#f6f4da" d="M 176.128906 70.507812 L 176.128906 75.832031 L 181.449219 75.832031 L 181.449219 65.1875 L 176.128906 65.1875 Z M 176.128906 54.542969 L 181.449219 54.542969 L 181.449219 49.21875 L 176.128906 49.21875 Z M 176.128906 54.542969 " fill-opacity="1" fill-rule="nonzero"/><g clip-path="url(#087456c251)"><path fill="#ffffff" d="M 197.414062 33.253906 L 202.738281 33.253906 L 202.738281 107.761719 L 154.839844 107.761719 L 154.839844 65.1875 L 144.195312 65.1875 L 144.195312 107.761719 L 96.296875 107.761719 L 96.296875 27.933594 L 101.621094 27.933594 L 101.621094 22.609375 L 192.09375 22.609375 L 192.09375 27.933594 L 197.414062 27.933594 Z M 192.09375 38.578125 L 192.09375 33.253906 L 186.773438 33.253906 L 186.773438 27.933594 L 138.875 27.933594 L 138.875 33.253906 L 133.550781 33.253906 L 133.550781 27.933594 L 106.941406 27.933594 L 106.941406 33.253906 L 101.621094 33.253906 L 101.621094 102.441406 L 138.875 102.441406 L 138.875 59.863281 L 160.160156 59.863281 L 160.160156 102.441406 L 197.414062 102.441406 L 197.414062 38.578125 Z M 176.128906 81.152344 L 176.128906 86.472656 L 181.449219 86.472656 L 181.449219 75.832031 L 176.128906 75.832031 Z M 176.128906 59.863281 L 181.449219 59.863281 L 181.449219 54.542969 L 176.128906 54.542969 Z M 176.128906 59.863281 " fill-opacity="1" fill-rule="nonzero"/></g><g clip-path="url(#7a94e7dccd)"><path fill="#ffffff" d="M 309.179688 18.132812 L 309.179688 107.757812 L 213.957031 107.757812 L 213.957031 96.554688 L 202.753906 96.554688 L 202.753906 46.140625 L 208.355469 46.140625 L 208.355469 40.539062 L 213.957031 40.539062 L 213.957031 18.132812 L 219.558594 18.132812 L 219.558594 12.53125 L 225.160156 12.53125 L 225.160156 6.929688 L 297.976562 6.929688 L 297.976562 12.53125 L 303.578125 12.53125 L 303.578125 18.132812 Z M 309.179688 18.132812 " fill-opacity="1" fill-rule="nonzero"/></g><path fill="#4d769c" d="M 297.976562 23.734375 L 297.976562 18.132812 L 292.375 18.132812 L 292.375 12.53125 L 230.761719 12.53125 L 230.761719 18.132812 L 225.160156 18.132812 L 225.160156 23.734375 L 219.558594 23.734375 L 219.558594 46.140625 L 213.957031 46.140625 L 213.957031 51.742188 L 208.355469 51.742188 L 208.355469 90.953125 L 213.957031 90.953125 L 213.957031 96.554688 L 219.558594 96.554688 L 219.558594 102.15625 L 303.578125 102.15625 L 303.578125 23.734375 Z M 253.167969 34.9375 L 269.972656 34.9375 L 269.972656 40.539062 L 253.167969 40.539062 Z M 269.972656 68.546875 L 264.371094 68.546875 L 264.371094 74.148438 L 253.167969 74.148438 L 253.167969 62.945312 L 269.972656 62.945312 Z M 269.972656 68.546875 " fill-opacity="1" fill-rule="nonzero"/><path fill="#269dc5" d="M 286.773438 23.734375 L 286.773438 18.132812 L 240.210938 18.132812 L 240.210938 23.734375 L 236.363281 23.734375 L 232.992188 25.929688 L 230.761719 29.335938 L 227.960938 31.5625 L 230.761719 34.9375 L 247.566406 34.9375 L 247.566406 29.335938 L 275.574219 29.335938 L 275.574219 46.140625 L 230.761719 46.140625 L 228.332031 48.941406 L 225.160156 51.742188 L 223.40625 57.34375 L 216.613281 61.601562 L 216.613281 82.246094 L 221.921875 85.351562 L 225.160156 88.757812 L 229.234375 93.167969 L 236.363281 96.554688 L 292.375 96.554688 L 292.375 23.734375 Z M 275.574219 74.148438 L 269.972656 74.148438 L 269.972656 79.75 L 241.964844 79.75 L 241.964844 74.148438 L 236.363281 74.148438 L 236.363281 62.945312 L 241.964844 62.945312 L 241.964844 57.34375 L 275.574219 57.34375 Z M 275.574219 74.148438 " fill-opacity="1" fill-rule="nonzero"/><path fill="#f6f4da" d="M 236.363281 23.734375 L 236.363281 29.335938 L 230.761719 29.335938 L 230.761719 23.734375 Z M 230.761719 85.351562 L 225.160156 85.351562 L 225.160156 79.75 L 219.558594 79.75 L 219.558594 62.945312 L 225.160156 62.945312 L 225.160156 51.742188 L 219.558594 51.742188 L 219.558594 57.34375 L 213.957031 57.34375 L 213.957031 85.351562 L 219.558594 85.351562 L 219.558594 90.953125 L 225.160156 90.953125 L 225.160156 96.554688 L 236.363281 96.554688 L 236.363281 90.953125 L 230.761719 90.953125 Z M 230.761719 46.140625 L 225.160156 46.140625 L 225.160156 51.742188 L 230.761719 51.742188 Z M 225.160156 34.9375 L 230.761719 34.9375 L 230.761719 29.335938 L 225.160156 29.335938 Z M 225.160156 34.9375 " fill-opacity="1" fill-rule="nonzero"/><path fill="#f6f4da" d="M 281.175781 46.140625 L 286.777344 46.140625 L 286.777344 62.945312 L 281.175781 62.945312 Z M 281.175781 29.335938 L 281.175781 34.9375 L 286.777344 34.9375 L 286.777344 29.335938 Z M 281.175781 29.335938 " fill-opacity="1" fill-rule="nonzero"/><g clip-path="url(#7b91cbd3f7)"><path fill="#ffffff" d="M 264.371094 34.9375 L 269.972656 34.9375 L 269.972656 40.539062 L 253.167969 40.539062 L 253.167969 34.9375 Z M 258.769531 62.945312 L 253.167969 62.945312 L 253.167969 74.148438 L 264.371094 74.148438 L 264.371094 68.546875 L 269.972656 68.546875 L 269.972656 62.945312 Z M 281.175781 68.546875 L 281.175781 79.75 L 286.777344 79.75 L 286.777344 62.945312 L 281.175781 62.945312 Z M 309.183594 18.132812 L 309.183594 107.757812 L 213.957031 107.757812 L 213.957031 102.15625 L 208.355469 102.15625 L 208.355469 96.554688 L 202.753906 96.554688 L 202.753906 46.140625 L 208.355469 46.140625 L 208.355469 40.539062 L 213.957031 40.539062 L 213.957031 18.132812 L 219.558594 18.132812 L 219.558594 12.53125 L 225.160156 12.53125 L 225.160156 6.929688 L 297.980469 6.929688 L 297.980469 12.53125 L 303.582031 12.53125 L 303.582031 18.132812 Z M 303.582031 23.734375 L 297.980469 23.734375 L 297.980469 18.132812 L 292.378906 18.132812 L 292.378906 12.53125 L 230.761719 12.53125 L 230.761719 18.132812 L 225.160156 18.132812 L 225.160156 23.734375 L 219.558594 23.734375 L 219.558594 46.140625 L 213.957031 46.140625 L 213.957031 51.742188 L 208.355469 51.742188 L 208.355469 90.953125 L 213.957031 90.953125 L 213.957031 96.554688 L 219.558594 96.554688 L 219.558594 102.15625 L 303.582031 102.15625 Z M 281.175781 40.539062 L 286.777344 40.539062 L 286.777344 34.9375 L 281.175781 34.9375 Z M 281.175781 40.539062 " fill-opacity="1" fill-rule="nonzero"/></g><g clip-path="url(#ca57241087)"><path fill="#ffffff" d="M 390.097656 9.832031 L 385.839844 9.832031 L 385.839844 5.574219 L 381.582031 5.574219 L 381.582031 1.316406 L 309.203125 1.316406 L 309.203125 107.757812 L 390.097656 107.757812 L 390.097656 103.5 L 394.355469 103.5 L 394.355469 52.410156 L 390.097656 52.410156 L 390.097656 48.152344 L 394.355469 48.152344 L 394.355469 9.832031 Z M 347.519531 73.695312 L 347.519531 65.179688 L 351.777344 65.179688 L 351.777344 77.953125 L 347.519531 77.953125 Z M 347.519531 73.695312 " fill-opacity="1" fill-rule="nonzero"/></g><path fill="#4d769c" d="M 385.839844 48.152344 L 385.839844 43.894531 L 390.09375 43.894531 L 390.09375 14.089844 L 385.839844 14.089844 L 385.839844 9.832031 L 381.582031 9.832031 L 381.582031 5.574219 L 313.457031 5.574219 L 313.457031 103.5 L 385.839844 103.5 L 385.839844 99.242188 L 390.09375 99.242188 L 390.09375 56.664062 L 385.839844 56.664062 L 385.839844 52.40625 L 381.582031 52.40625 L 381.582031 48.152344 Z M 343.261719 31.121094 L 360.292969 31.121094 L 360.292969 39.636719 L 343.261719 39.636719 Z M 356.035156 82.210938 L 343.261719 82.210938 L 343.261719 60.921875 L 356.035156 60.921875 L 356.035156 65.179688 L 360.292969 65.179688 L 360.292969 77.953125 L 356.035156 77.953125 Z M 356.035156 82.210938 " fill-opacity="1" fill-rule="nonzero"/><path fill="#ffcd03" d="M 377.324219 48.152344 L 377.324219 43.894531 L 381.582031 43.894531 L 381.582031 18.347656 L 377.324219 18.347656 L 368.808594 9.832031 L 326.230469 9.832031 L 321.9375 95.972656 L 330.488281 99.242188 L 377.324219 99.242188 L 377.324219 94.984375 L 381.582031 94.984375 L 381.582031 60.921875 L 377.324219 60.921875 L 377.324219 56.664062 L 373.066406 56.664062 L 373.066406 48.152344 Z M 364.550781 82.210938 L 360.292969 82.210938 L 360.292969 86.46875 L 334.746094 86.46875 L 334.746094 56.664062 L 360.292969 56.664062 L 360.292969 60.921875 L 364.550781 60.921875 Z M 364.550781 39.636719 L 360.292969 39.636719 L 360.292969 43.894531 L 334.746094 43.894531 L 334.746094 26.863281 L 360.292969 26.863281 L 360.292969 31.121094 L 364.550781 31.121094 Z M 364.550781 39.636719 " fill-opacity="1" fill-rule="nonzero"/><path fill="#f6f4da" d="M 373.066406 65.179688 L 377.324219 65.179688 L 377.324219 73.695312 L 373.066406 73.695312 Z M 373.066406 26.863281 L 373.066406 35.378906 L 377.324219 35.378906 L 377.324219 22.605469 L 373.066406 22.605469 Z M 373.066406 14.089844 L 373.066406 18.347656 L 377.324219 18.347656 L 377.324219 14.089844 Z M 368.808594 9.832031 L 368.808594 14.089844 L 373.066406 14.089844 L 373.066406 9.832031 Z M 368.808594 9.832031 " fill-opacity="1" fill-rule="nonzero"/><path fill="#f6f4da" d="M 330.488281 94.984375 L 330.488281 99.242188 L 317.714844 99.242188 L 317.714844 9.832031 L 326.230469 9.832031 L 326.230469 94.984375 Z M 330.488281 94.984375 " fill-opacity="1" fill-rule="nonzero"/><g clip-path="url(#21295c582d)"><path fill="#ffffff" d="M 390.097656 60.921875 L 390.097656 56.667969 L 394.355469 56.667969 L 394.355469 103.5 L 390.097656 103.5 L 390.097656 107.757812 L 309.203125 107.757812 L 309.203125 1.316406 L 381.582031 1.316406 L 381.582031 5.574219 L 313.460938 5.574219 L 313.460938 103.5 L 385.839844 103.5 L 385.839844 99.242188 L 390.097656 99.242188 Z M 390.097656 9.832031 L 385.839844 9.832031 L 385.839844 14.089844 L 390.097656 14.089844 L 390.097656 43.894531 L 385.839844 43.894531 L 385.839844 48.152344 L 381.582031 48.152344 L 381.582031 52.410156 L 385.839844 52.410156 L 385.839844 56.667969 L 394.355469 56.667969 L 394.355469 52.410156 L 390.097656 52.410156 L 390.097656 48.152344 L 394.355469 48.152344 L 394.355469 9.832031 Z M 385.839844 9.832031 L 385.839844 5.574219 L 381.582031 5.574219 L 381.582031 9.832031 Z M 373.066406 77.953125 L 373.066406 86.46875 L 377.324219 86.46875 L 377.324219 73.695312 L 373.066406 73.695312 Z M 373.066406 39.636719 L 377.324219 39.636719 L 377.324219 35.378906 L 373.066406 35.378906 Z M 356.035156 65.179688 L 360.292969 65.179688 L 360.292969 77.953125 L 356.035156 77.953125 L 356.035156 82.210938 L 343.261719 82.210938 L 343.261719 60.921875 L 356.035156 60.921875 Z M 351.777344 65.179688 L 347.519531 65.179688 L 347.519531 77.953125 L 351.777344 77.953125 Z M 351.777344 31.121094 L 343.261719 31.121094 L 343.261719 39.636719 L 360.292969 39.636719 L 360.292969 31.121094 Z M 351.777344 31.121094 " fill-opacity="1" fill-rule="nonzero"/></g><g clip-path="url(#7eb7e8683e)"><path fill="#ffffff" d="M 94.875 12.773438 L 94.875 106.441406 L 52.300781 106.441406 L 52.300781 63.863281 L 48.042969 63.863281 L 48.042969 106.441406 L 9.722656 106.441406 L 9.722656 8.515625 L 13.980469 8.515625 L 13.980469 4.257812 L 18.238281 4.257812 L 18.238281 0 L 82.105469 0 L 82.105469 4.257812 L 86.363281 4.257812 L 86.363281 8.515625 L 90.621094 8.515625 L 90.621094 12.773438 Z M 94.875 12.773438 " fill-opacity="1" fill-rule="nonzero"/></g><path fill="#4d769c" d="M 86.363281 17.03125 L 86.363281 12.773438 L 82.105469 12.773438 L 82.105469 8.515625 L 77.847656 8.515625 L 77.847656 4.257812 L 22.496094 4.257812 L 22.496094 8.515625 L 18.238281 8.515625 L 18.238281 12.773438 L 13.980469 12.773438 L 13.980469 102.183594 L 43.785156 102.183594 L 43.785156 59.605469 L 56.558594 59.605469 L 56.558594 102.183594 L 90.621094 102.183594 L 90.621094 17.03125 C 90.621094 17.03125 86.363281 17.03125 86.363281 17.03125 Z M 56.558594 29.804688 L 56.558594 38.320312 L 43.785156 38.320312 L 43.785156 29.804688 Z M 56.558594 29.804688 " fill-opacity="1" fill-rule="nonzero"/><path fill="#f6f4da" d="M 73.589844 59.605469 L 77.847656 59.605469 L 77.847656 72.378906 L 73.589844 72.378906 Z M 73.589844 25.546875 L 73.589844 34.0625 L 77.847656 34.0625 L 77.847656 21.289062 L 73.589844 21.289062 Z M 73.589844 12.773438 L 73.589844 17.03125 L 77.847656 17.03125 L 77.847656 12.773438 Z M 69.332031 8.515625 L 69.332031 12.773438 L 73.589844 12.773438 L 73.589844 8.515625 Z M 69.332031 8.515625 " fill-opacity="1" fill-rule="nonzero"/><path fill="#269dc5" d="M 77.847656 17.03125 L 73.589844 12.773438 L 71.460938 11.648438 L 69.332031 8.515625 L 35.269531 8.515625 L 28.945312 12.773438 L 26.753906 15.941406 L 24.6875 17.03125 L 21.832031 94.683594 L 31.011719 97.925781 L 35.269531 97.925781 L 35.269531 55.347656 L 65.074219 55.347656 L 65.074219 97.925781 L 82.105469 97.925781 L 82.105469 17.03125 Z M 65.074219 42.578125 L 35.269531 42.578125 L 35.269531 29.804688 L 39.527344 29.804688 L 39.527344 25.546875 L 60.816406 25.546875 L 60.816406 29.804688 L 65.074219 29.804688 Z M 65.074219 42.578125 " fill-opacity="1" fill-rule="nonzero"/><path fill="#f6f4da" d="M 35.269531 8.515625 L 35.269531 21.289062 L 31.011719 21.289062 L 31.011719 29.804688 L 26.753906 29.804688 L 26.753906 93.667969 L 31.011719 93.667969 L 31.011719 97.925781 L 18.238281 97.925781 L 18.238281 17.03125 L 22.496094 17.03125 L 22.496094 12.773438 L 26.753906 12.773438 L 26.753906 8.515625 Z M 35.269531 8.515625 " fill-opacity="1" fill-rule="nonzero"/><path fill="#f6f4da" d="M 73.589844 59.605469 L 77.847656 59.605469 L 77.847656 72.378906 L 73.589844 72.378906 Z M 73.589844 25.546875 L 73.589844 34.0625 L 77.847656 34.0625 L 77.847656 21.289062 L 73.589844 21.289062 Z M 73.589844 12.773438 L 73.589844 17.03125 L 77.847656 17.03125 L 77.847656 12.773438 Z M 69.332031 8.515625 L 69.332031 12.773438 L 73.589844 12.773438 L 73.589844 8.515625 Z M 69.332031 8.515625 " fill-opacity="1" fill-rule="nonzero"/><g clip-path="url(#1b6ffe6ef5)"><path fill="#ffffff" d="M 496.574219 34.0625 L 496.574219 63.863281 L 492.316406 63.863281 L 492.316406 102.183594 L 488.058594 102.183594 L 488.058594 106.4375 L 445.484375 106.4375 L 445.484375 102.183594 L 441.226562 102.183594 L 441.226562 68.121094 L 454 68.121094 L 454 63.863281 L 445.484375 63.863281 L 445.484375 34.0625 L 454 34.0625 L 454 0 L 492.316406 0 L 492.316406 34.0625 Z M 496.574219 34.0625 " fill-opacity="1" fill-rule="nonzero"/></g><path fill="#4d769c" d="M 492.316406 38.320312 L 492.316406 59.605469 L 488.058594 59.605469 L 488.058594 97.925781 L 483.804688 97.925781 L 483.804688 102.183594 L 449.742188 102.183594 L 449.742188 97.925781 L 445.484375 97.925781 L 445.484375 72.378906 L 458.257812 72.378906 L 458.257812 59.605469 L 449.742188 59.605469 L 449.742188 38.320312 L 458.257812 38.320312 L 458.257812 4.257812 L 488.058594 4.257812 L 488.058594 38.320312 Z M 492.316406 38.320312 " fill-opacity="1" fill-rule="nonzero"/><path fill="#ffcd03" d="M 488.058594 42.578125 L 488.058594 55.347656 L 479.546875 55.347656 L 479.546875 93.667969 L 475.289062 93.667969 L 475.289062 97.925781 L 454 97.925781 L 454 93.667969 L 451.328125 78.265625 L 458.257812 80.894531 L 458.257812 85.152344 L 462.515625 85.152344 L 462.515625 55.347656 L 458.257812 55.347656 L 456.046875 45.148438 L 462.515625 42.578125 L 466.773438 8.515625 L 479.546875 8.515625 L 479.546875 42.578125 Z M 488.058594 42.578125 " fill-opacity="1" fill-rule="nonzero"/><path fill="#f6f4da" d="M 462.515625 59.605469 L 462.515625 85.152344 L 466.773438 85.152344 L 466.773438 55.347656 L 462.515625 55.347656 Z M 462.515625 12.773438 L 462.515625 42.578125 L 466.773438 42.578125 L 466.773438 8.515625 L 462.515625 8.515625 Z M 454 42.578125 L 454 55.347656 L 458.257812 55.347656 L 458.257812 46.835938 L 462.515625 46.835938 L 462.515625 42.578125 Z M 449.742188 76.636719 L 449.742188 93.667969 L 454 93.667969 L 454 80.894531 L 458.257812 80.894531 L 458.257812 76.636719 Z M 449.742188 76.636719 " fill-opacity="1" fill-rule="nonzero"/><path fill="#f6f4da" d="M 471.03125 76.636719 L 471.03125 80.894531 L 475.289062 80.894531 L 475.289062 72.378906 L 471.03125 72.378906 Z M 471.03125 29.804688 L 471.03125 34.0625 L 475.289062 34.0625 L 475.289062 25.546875 L 471.03125 25.546875 Z M 471.03125 29.804688 " fill-opacity="1" fill-rule="nonzero"/><g clip-path="url(#2af0767788)"><path fill="#ffffff" d="M 492.320312 34.0625 L 496.578125 34.0625 L 496.578125 63.863281 L 492.320312 63.863281 L 492.320312 102.183594 L 488.0625 102.183594 L 488.0625 106.4375 L 445.488281 106.4375 L 445.488281 102.183594 L 441.230469 102.183594 L 441.230469 68.121094 L 454 68.121094 L 454 63.863281 L 445.488281 63.863281 L 445.488281 34.0625 L 454 34.0625 L 454 0 L 492.320312 0 Z M 488.0625 38.320312 L 488.0625 4.257812 L 458.257812 4.257812 L 458.257812 38.320312 L 449.742188 38.320312 L 449.742188 59.605469 L 458.257812 59.605469 L 458.257812 72.378906 L 445.488281 72.378906 L 445.488281 97.925781 L 449.742188 97.925781 L 449.742188 102.183594 L 483.804688 102.183594 L 483.804688 97.925781 L 488.0625 97.925781 L 488.0625 59.605469 L 492.320312 59.605469 L 492.320312 38.320312 Z M 471.03125 68.121094 L 471.03125 72.378906 L 475.289062 72.378906 L 475.289062 63.863281 L 471.03125 63.863281 Z M 471.03125 25.546875 L 475.289062 25.546875 L 475.289062 21.289062 L 471.03125 21.289062 Z M 471.03125 25.546875 " fill-opacity="1" fill-rule="nonzero"/></g><g clip-path="url(#82cb702831)"><path fill="#ffffff" d="M 599.085938 58.496094 L 599.085938 63.816406 L 604.410156 63.816406 L 604.410156 101.070312 L 599.085938 101.070312 L 599.085938 106.394531 L 503.289062 106.394531 L 503.289062 101.070312 L 497.96875 101.070312 L 497.96875 21.242188 L 503.289062 21.242188 L 503.289062 15.917969 L 599.085938 15.917969 L 599.085938 21.242188 L 604.410156 21.242188 L 604.410156 58.496094 Z M 599.085938 58.496094 " fill-opacity="1" fill-rule="nonzero"/></g><path fill="#4d769c" d="M 593.765625 63.816406 L 593.765625 58.496094 L 599.085938 58.496094 L 599.085938 26.5625 L 593.765625 26.5625 L 593.765625 21.242188 L 508.613281 21.242188 L 508.613281 26.5625 L 503.289062 26.5625 L 503.289062 95.75 L 508.613281 95.75 L 508.613281 101.070312 L 593.765625 101.070312 L 593.765625 95.75 L 599.085938 95.75 L 599.085938 69.140625 L 583.121094 69.140625 L 583.121094 63.816406 Z M 567.15625 79.785156 L 540.542969 79.785156 L 540.542969 69.140625 L 567.15625 69.140625 Z M 567.15625 79.785156 " fill-opacity="1" fill-rule="nonzero"/><path fill="#ffcd03" d="M 583.121094 63.816406 L 583.121094 58.496094 L 588.445312 58.496094 L 588.445312 42.527344 L 583.121094 31.886719 L 577.800781 26.5625 L 524.578125 26.5625 L 514.894531 33.480469 L 511.613281 36.71875 L 511.464844 85.105469 L 516.59375 88.832031 L 524.578125 95.75 L 588.445312 95.75 L 588.445312 74.460938 L 572.476562 74.460938 L 572.476562 85.105469 L 529.902344 85.105469 L 529.902344 63.816406 Z M 529.902344 42.527344 L 567.15625 42.527344 L 567.15625 53.171875 L 529.902344 53.171875 Z M 529.902344 42.527344 " fill-opacity="1" fill-rule="nonzero"/><path fill="#f6f4da" d="M 513.933594 26.5625 L 513.933594 31.886719 L 508.613281 31.886719 L 508.613281 90.425781 L 513.933594 90.425781 L 513.933594 95.75 L 524.578125 95.75 L 524.578125 90.425781 L 519.257812 90.425781 L 519.257812 85.105469 L 513.933594 85.105469 L 513.933594 37.207031 L 519.257812 37.207031 L 519.257812 31.886719 L 524.578125 31.886719 L 524.578125 26.5625 Z M 513.933594 26.5625 " fill-opacity="1" fill-rule="nonzero"/><path fill="#f6f4da" d="M 588.445312 31.886719 L 588.445312 42.527344 L 577.800781 42.527344 L 577.800781 37.207031 L 583.121094 37.207031 L 583.121094 31.886719 Z M 577.800781 85.105469 L 583.121094 85.105469 L 583.121094 79.785156 L 577.800781 79.785156 Z M 577.800781 26.5625 L 577.800781 31.886719 L 583.121094 31.886719 L 583.121094 26.5625 Z M 577.800781 26.5625 " fill-opacity="1" fill-rule="nonzero"/><g clip-path="url(#a4c870ff07)"><path fill="#ffffff" d="M 599.085938 21.242188 L 604.410156 21.242188 L 604.410156 58.496094 L 599.085938 58.496094 L 599.085938 26.5625 L 593.765625 26.5625 L 593.765625 21.242188 L 508.613281 21.242188 L 508.613281 26.5625 L 503.289062 26.5625 L 503.289062 95.75 L 508.613281 95.75 L 508.613281 101.070312 L 593.765625 101.070312 L 593.765625 95.75 L 599.085938 95.75 L 599.085938 69.140625 L 583.121094 69.140625 L 583.121094 63.816406 L 593.765625 63.816406 L 593.765625 58.496094 L 599.085938 58.496094 L 599.085938 63.816406 L 604.410156 63.816406 L 604.410156 101.070312 L 599.085938 101.070312 L 599.085938 106.394531 L 503.289062 106.394531 L 503.289062 101.070312 L 497.96875 101.070312 L 497.96875 21.242188 L 503.289062 21.242188 L 503.289062 15.917969 L 599.085938 15.917969 Z M 577.800781 85.105469 L 583.121094 85.105469 L 583.121094 90.425781 L 577.800781 90.425781 Z M 577.800781 42.527344 L 583.121094 42.527344 L 583.121094 47.851562 L 577.800781 47.851562 Z M 561.832031 69.140625 L 567.15625 69.140625 L 567.15625 79.785156 L 540.542969 79.785156 L 540.542969 69.140625 Z M 561.832031 69.140625 " fill-opacity="1" fill-rule="nonzero"/></g><g fill="#7f99b2" fill-opacity="1"><g transform="translate(11.908754, 155.204618)"><g><path d="M 35.890625 -26.96875 L 31.359375 -26.96875 L 31.359375 -24.015625 L 34.203125 -24.015625 L 34.203125 -16.40625 L 35.84375 -16.40625 L 35.84375 -15.421875 L 32.390625 -15.421875 L 32.390625 -10.5625 L 31.15625 -10.5625 L 31.15625 -7.609375 L 35.03125 -7.609375 L 35.03125 -5.265625 C 35.03125 -4.847656 35.015625 -4.453125 34.984375 -4.078125 C 34.953125 -3.710938 34.910156 -3.378906 34.859375 -3.078125 L 31.53125 -3.078125 C 31.5 -2.890625 31.457031 -2.710938 31.40625 -2.546875 C 31.351562 -2.378906 31.300781 -2.226562 31.25 -2.09375 L 31.6875 -2.09375 C 31.632812 -1.90625 31.570312 -1.734375 31.5 -1.578125 C 31.4375 -1.429688 31.351562 -1.289062 31.25 -1.15625 C 30.664062 -0.351562 29.773438 0.046875 28.578125 0.046875 L 25.5625 0.046875 C 25.019531 0.046875 24.554688 0.00390625 24.171875 -0.078125 C 23.984375 -0.140625 23.789062 -0.203125 23.59375 -0.265625 C 23.40625 -0.335938 23.226562 -0.425781 23.0625 -0.53125 C 22.726562 -0.726562 22.425781 -1.03125 22.15625 -1.4375 C 22.101562 -1.519531 22.035156 -1.625 21.953125 -1.75 C 21.867188 -1.875 21.785156 -1.988281 21.703125 -2.09375 L 19.40625 -2.09375 C 19.320312 -2.226562 19.234375 -2.363281 19.140625 -2.5 C 19.046875 -2.644531 18.941406 -2.796875 18.828125 -2.953125 L 18.75 -3.078125 L 24.046875 -3.078125 L 21.5 -7.609375 L 17.640625 -7.609375 L 15.984375 -10.5625 L 17.21875 -10.5625 L 14.515625 -15.421875 L 17.1875 -15.421875 L 16.609375 -16.40625 L 15.75 -16.40625 L 11.46875 -24.015625 L 9.984375 -24.015625 L 9.984375 -16.40625 L 12.984375 -16.40625 L 12.984375 -15.421875 L 8.1875 -15.421875 L 8.1875 -10.5625 L 10.484375 -10.5625 L 10.484375 -3.078125 L 7.609375 -3.078125 L 7.609375 -2.09375 L 10.9375 -2.09375 L 10.9375 -1.390625 C 10.9375 -0.765625 10.785156 -0.367188 10.484375 -0.203125 C 10.179688 -0.0351562 9.945312 0.046875 9.78125 0.046875 L 6.125 0.046875 C 5.9375 0.046875 5.691406 -0.0351562 5.390625 -0.203125 C 5.085938 -0.367188 4.9375 -0.765625 4.9375 -1.390625 L 4.9375 -2.09375 L 1.609375 -2.09375 L 1.609375 -3.078125 L 4.484375 -3.078125 L 4.484375 -7.609375 L 0.828125 -7.609375 L 0.828125 -10.5625 L 2.171875 -10.5625 L 2.171875 -15.421875 L 1.390625 -15.421875 L 1.390625 -16.40625 L 3.984375 -16.40625 L 3.984375 -24.015625 L 1.15625 -24.015625 L 1.15625 -26.96875 L 3.703125 -26.96875 L 3.703125 -28.578125 C 3.703125 -28.648438 3.703125 -28.722656 3.703125 -28.796875 C 3.703125 -28.867188 3.703125 -28.941406 3.703125 -29.015625 L 1.359375 -29.015625 C 1.378906 -29.648438 1.425781 -30.210938 1.5 -30.703125 C 1.570312 -31.203125 1.675781 -31.628906 1.8125 -31.984375 L 4.84375 -31.984375 C 4.988281 -32.304688 5.128906 -32.550781 5.265625 -32.71875 C 5.867188 -33.488281 6.757812 -33.875 7.9375 -33.875 L 10.96875 -33.875 C 11.269531 -33.875 11.546875 -33.863281 11.796875 -33.84375 C 12.046875 -33.832031 12.265625 -33.816406 12.453125 -33.796875 C 12.867188 -33.710938 13.238281 -33.546875 13.5625 -33.296875 C 13.84375 -33.109375 14.144531 -32.796875 14.46875 -32.359375 C 14.519531 -32.296875 14.566406 -32.226562 14.609375 -32.15625 C 14.648438 -32.09375 14.6875 -32.035156 14.71875 -31.984375 L 11.671875 -31.984375 C 11.785156 -31.816406 11.890625 -31.644531 11.984375 -31.46875 C 12.078125 -31.289062 12.179688 -31.09375 12.296875 -30.875 L 13.359375 -29.015625 L 15.703125 -29.015625 L 16.859375 -26.96875 L 14.3125 -26.96875 L 15.984375 -24.015625 L 18.828125 -24.015625 L 23.109375 -16.40625 L 23.96875 -16.40625 L 24.5 -15.421875 L 21.828125 -15.421875 L 24.546875 -10.5625 L 23.3125 -10.5625 L 24.875 -7.765625 C 24.925781 -7.679688 24.96875 -7.640625 25 -7.640625 L 25.203125 -7.640625 C 25.203125 -7.671875 25.203125 -7.6875 25.203125 -7.6875 C 25.203125 -7.6875 25.203125 -7.703125 25.203125 -7.734375 L 25.203125 -10.5625 L 26.4375 -10.5625 L 26.4375 -15.421875 L 26.109375 -15.421875 L 26.109375 -16.40625 L 28.28125 -16.40625 L 28.28125 -24.015625 L 22.078125 -24.015625 L 22.078125 -26.96875 L 27.953125 -26.96875 L 27.953125 -29.015625 L 25.609375 -29.015625 L 25.609375 -31.984375 L 28.65625 -31.984375 L 28.65625 -32.4375 C 28.65625 -33.09375 28.804688 -33.492188 29.109375 -33.640625 C 29.410156 -33.796875 29.640625 -33.875 29.796875 -33.875 L 33.46875 -33.875 C 33.65625 -33.875 33.890625 -33.796875 34.171875 -33.640625 C 34.460938 -33.492188 34.609375 -33.09375 34.609375 -32.4375 L 34.609375 -31.984375 L 31.578125 -31.984375 L 31.578125 -29.015625 L 35.890625 -29.015625 Z M 21.375 -30.75 L 21.375 -31.28125 L 15.375 -31.28125 L 15.375 -30.75 Z M 18.375 -4.765625 L 18.375 -5.21875 L 12.625 -5.21875 L 12.625 -4.765625 Z M 24.703125 -27.875 L 24.703125 -28.328125 L 18.953125 -28.328125 L 18.953125 -27.875 Z M 24.703125 -27.875 "/></g></g></g><g fill="#7f99b2" fill-opacity="1"><g transform="translate(50.799679, 155.204618)"><g><path d="M 34.90625 -18.828125 L 32.6875 -18.828125 L 32.6875 -17.84375 L 34.203125 -17.84375 L 34.203125 -12.984375 L 34.90625 -12.984375 L 34.90625 -12.875 C 34.90625 -11.851562 34.863281 -10.90625 34.78125 -10.03125 L 33.546875 -10.03125 C 33.515625 -9.457031 33.457031 -8.921875 33.375 -8.421875 C 33.289062 -7.929688 33.195312 -7.453125 33.09375 -6.984375 C 33.0625 -6.710938 33.003906 -6.453125 32.921875 -6.203125 C 32.847656 -5.960938 32.769531 -5.71875 32.6875 -5.46875 L 31.078125 -5.46875 C 31.023438 -5.300781 30.960938 -5.132812 30.890625 -4.96875 C 30.828125 -4.8125 30.753906 -4.648438 30.671875 -4.484375 L 33.375 -4.484375 C 33.070312 -3.878906 32.757812 -3.359375 32.4375 -2.921875 C 32 -2.398438 31.492188 -1.929688 30.921875 -1.515625 L 28.6875 -1.515625 C 28.414062 -1.359375 28.144531 -1.203125 27.875 -1.046875 C 27.601562 -0.898438 27.316406 -0.769531 27.015625 -0.65625 C 25.691406 -0.1875 24.140625 0.046875 22.359375 0.046875 L 12.328125 0.046875 C 10.523438 0.046875 8.992188 -0.1875 7.734375 -0.65625 C 7.429688 -0.769531 7.132812 -0.898438 6.84375 -1.046875 C 6.550781 -1.203125 6.285156 -1.359375 6.046875 -1.515625 L 8.265625 -1.515625 C 7.660156 -1.929688 7.148438 -2.410156 6.734375 -2.953125 C 6.578125 -3.171875 6.421875 -3.410156 6.265625 -3.671875 C 6.117188 -3.929688 5.976562 -4.203125 5.84375 -4.484375 L 2.0625 -4.484375 C 1.976562 -4.648438 1.898438 -4.8125 1.828125 -4.96875 C 1.765625 -5.132812 1.703125 -5.300781 1.640625 -5.46875 L 4.3125 -5.46875 C 4.226562 -5.71875 4.148438 -5.960938 4.078125 -6.203125 C 4.015625 -6.453125 3.957031 -6.710938 3.90625 -6.984375 C 3.789062 -7.421875 3.695312 -7.894531 3.625 -8.40625 C 3.5625 -8.914062 3.503906 -9.457031 3.453125 -10.03125 L 2.171875 -10.03125 C 2.097656 -10.90625 2.0625 -11.851562 2.0625 -12.875 L 2.0625 -12.984375 L 3.53125 -12.984375 L 3.53125 -17.84375 L 1.609375 -17.84375 L 1.609375 -18.828125 L 4.5625 -18.828125 L 4.5625 -21 C 4.5625 -23.082031 4.726562 -24.878906 5.0625 -26.390625 L 2.0625 -26.390625 C 2.082031 -26.472656 2.09375 -26.554688 2.09375 -26.640625 C 2.09375 -26.722656 2.109375 -26.789062 2.140625 -26.84375 C 2.328125 -27.769531 2.613281 -28.609375 3 -29.359375 L 4.9375 -29.359375 C 5.175781 -29.929688 5.476562 -30.4375 5.84375 -30.875 C 5.894531 -30.976562 5.96875 -31.070312 6.0625 -31.15625 C 6.15625 -31.238281 6.242188 -31.320312 6.328125 -31.40625 L 8.59375 -31.40625 C 9.332031 -32.175781 10.222656 -32.765625 11.265625 -33.171875 C 12.578125 -33.640625 14.125 -33.875 15.90625 -33.875 L 25.90625 -33.875 C 27.6875 -33.875 29.234375 -33.640625 30.546875 -33.171875 C 31.640625 -32.765625 32.539062 -32.175781 33.25 -31.40625 L 31 -31.40625 C 31.082031 -31.320312 31.160156 -31.238281 31.234375 -31.15625 C 31.316406 -31.070312 31.398438 -30.976562 31.484375 -30.875 C 31.847656 -30.4375 32.148438 -29.929688 32.390625 -29.359375 L 30.5 -29.359375 C 30.882812 -28.609375 31.171875 -27.769531 31.359375 -26.84375 C 31.390625 -26.789062 31.40625 -26.722656 31.40625 -26.640625 C 31.40625 -26.554688 31.421875 -26.472656 31.453125 -26.390625 L 34.453125 -26.390625 C 34.585938 -25.617188 34.695312 -24.785156 34.78125 -23.890625 C 34.863281 -23.003906 34.90625 -22.039062 34.90625 -21 Z M 26.5625 -17.84375 L 25.53125 -17.84375 L 25.53125 -18.828125 L 28.78125 -18.828125 L 28.78125 -21.703125 C 28.78125 -22.304688 28.765625 -22.859375 28.734375 -23.359375 C 28.703125 -23.867188 28.648438 -24.332031 28.578125 -24.75 C 28.429688 -25.40625 28.238281 -25.953125 28 -26.390625 L 25 -26.390625 C 24.96875 -26.441406 24.941406 -26.484375 24.921875 -26.515625 C 24.910156 -26.546875 24.894531 -26.570312 24.875 -26.59375 C 24.59375 -26.976562 24.191406 -27.28125 23.671875 -27.5 C 23.398438 -27.582031 23.085938 -27.648438 22.734375 -27.703125 C 22.378906 -27.765625 21.984375 -27.796875 21.546875 -27.796875 L 11.921875 -27.796875 C 11.484375 -27.796875 11.09375 -27.765625 10.75 -27.703125 C 10.40625 -27.648438 10.097656 -27.582031 9.828125 -27.5 C 9.273438 -27.28125 8.863281 -26.976562 8.59375 -26.59375 C 8.5625 -26.570312 8.539062 -26.546875 8.53125 -26.515625 C 8.519531 -26.484375 8.5 -26.441406 8.46875 -26.390625 L 11.46875 -26.390625 C 11.195312 -25.953125 11.003906 -25.40625 10.890625 -24.75 C 10.804688 -24.332031 10.75 -23.867188 10.71875 -23.359375 C 10.695312 -22.859375 10.6875 -22.304688 10.6875 -21.703125 L 10.6875 -18.828125 L 18.875 -18.828125 L 18.875 -17.84375 L 9.625 -17.84375 L 9.625 -12.984375 L 8.140625 -12.984375 L 8.140625 -12.125 C 8.140625 -11.351562 8.179688 -10.65625 8.265625 -10.03125 L 9.53125 -10.03125 C 9.5625 -9.863281 9.582031 -9.695312 9.59375 -9.53125 C 9.613281 -9.375 9.632812 -9.222656 9.65625 -9.078125 C 9.789062 -8.285156 10.023438 -7.6875 10.359375 -7.28125 C 10.628906 -6.84375 11.023438 -6.539062 11.546875 -6.375 C 12.097656 -6.175781 12.8125 -6.078125 13.6875 -6.078125 L 23.3125 -6.078125 C 24.21875 -6.078125 24.914062 -6.175781 25.40625 -6.375 C 25.957031 -6.539062 26.367188 -6.84375 26.640625 -7.28125 C 26.804688 -7.5 26.941406 -7.765625 27.046875 -8.078125 C 27.160156 -8.390625 27.257812 -8.722656 27.34375 -9.078125 C 27.363281 -9.222656 27.378906 -9.375 27.390625 -9.53125 C 27.410156 -9.695312 27.4375 -9.863281 27.46875 -10.03125 L 28.6875 -10.03125 C 28.71875 -10.332031 28.738281 -10.660156 28.75 -11.015625 C 28.769531 -11.367188 28.78125 -11.738281 28.78125 -12.125 L 28.78125 -12.984375 L 26.5625 -12.984375 Z M 24.21875 -10.359375 L 24.21875 -10.890625 L 18.21875 -10.890625 L 18.21875 -10.359375 Z M 16.359375 -8.34375 L 16.359375 -8.640625 L 12.453125 -8.640625 L 12.453125 -8.34375 Z M 24.21875 -23.796875 L 24.21875 -24.578125 L 16.40625 -24.578125 L 16.40625 -23.796875 Z M 17.1875 -13.734375 L 17.1875 -14.140625 L 11.421875 -14.140625 L 11.421875 -13.734375 Z M 17.1875 -13.734375 "/></g></g></g><g fill="#7f99b2" fill-opacity="1"><g transform="translate(89.731707, 155.204618)"><g/></g></g><g fill="#7f99b2" fill-opacity="1"><g transform="translate(112.918263, 155.204618)"><g><path d="M 30.34375 -22.9375 L 32.765625 -22.9375 C 32.734375 -22.414062 32.679688 -21.90625 32.609375 -21.40625 C 32.546875 -20.914062 32.472656 -20.441406 32.390625 -19.984375 L 31.203125 -19.984375 C 31.035156 -19.328125 30.832031 -18.71875 30.59375 -18.15625 C 30.363281 -17.59375 30.097656 -17.078125 29.796875 -16.609375 C 29.578125 -16.335938 29.335938 -16.078125 29.078125 -15.828125 C 28.816406 -15.578125 28.535156 -15.34375 28.234375 -15.125 L 26.921875 -15.125 C 26.179688 -14.65625 25.304688 -14.328125 24.296875 -14.140625 L 27.21875 -14.140625 C 26.632812 -14.054688 26.003906 -14.015625 25.328125 -14.015625 L 11.265625 -13.984375 L 11.265625 -6.578125 L 13.109375 -6.578125 L 13.109375 -3.625 L 9.65625 -3.625 L 9.65625 -1.5625 L 10.640625 -1.5625 L 10.640625 -1.390625 C 10.640625 -0.765625 10.492188 -0.367188 10.203125 -0.203125 C 9.921875 -0.0351562 9.6875 0.046875 9.5 0.046875 L 5.75 0.046875 C 5.5625 0.046875 5.316406 -0.0351562 5.015625 -0.203125 C 4.710938 -0.367188 4.5625 -0.765625 4.5625 -1.390625 L 4.5625 -1.5625 L -0.578125 -1.5625 L -0.578125 -3.625 L 4.0625 -3.625 L 4.0625 -6.578125 L 5.1875 -6.578125 L 5.1875 -14.140625 L 0.203125 -14.140625 L 0.203125 -15.125 L 3.578125 -15.125 L 3.578125 -18.65625 C 3.578125 -19.070312 3.648438 -19.378906 3.796875 -19.578125 C 3.953125 -19.785156 4.113281 -19.921875 4.28125 -19.984375 L 6.90625 -19.984375 C 6.988281 -20.035156 7.070312 -20.0625 7.15625 -20.0625 C 7.238281 -20.0625 7.304688 -20.0625 7.359375 -20.0625 L 25.28125 -20.0625 C 26.320312 -20.0625 27.050781 -20.363281 27.46875 -20.96875 C 27.789062 -21.4375 27.992188 -22.09375 28.078125 -22.9375 L 24.21875 -22.9375 C 24.238281 -23.101562 24.25 -23.257812 24.25 -23.40625 C 24.25 -23.5625 24.25 -23.734375 24.25 -23.921875 C 24.25 -25.296875 24.03125 -26.285156 23.59375 -26.890625 C 23.457031 -27.109375 23.210938 -27.3125 22.859375 -27.5 L 26.265625 -27.5 C 26.078125 -27.582031 25.863281 -27.648438 25.625 -27.703125 C 25.394531 -27.765625 25.128906 -27.796875 24.828125 -27.796875 L 6.953125 -27.796875 C 6.804688 -27.796875 6.625 -27.832031 6.40625 -27.90625 C 6.1875 -27.988281 6.007812 -28.179688 5.875 -28.484375 L 1.640625 -28.484375 C 1.554688 -28.648438 1.515625 -28.882812 1.515625 -29.1875 L 1.515625 -31.453125 L 4.5625 -31.453125 L 4.5625 -32.4375 C 4.5625 -33.09375 4.710938 -33.492188 5.015625 -33.640625 C 5.316406 -33.796875 5.5625 -33.875 5.75 -33.875 L 24.703125 -33.875 C 27.359375 -33.875 29.332031 -33.066406 30.625 -31.453125 L 27.546875 -31.453125 C 27.628906 -31.367188 27.679688 -31.300781 27.703125 -31.25 C 28.003906 -30.882812 28.257812 -30.46875 28.46875 -30 C 28.675781 -29.539062 28.847656 -29.035156 28.984375 -28.484375 L 31.609375 -28.484375 C 31.660156 -28.316406 31.703125 -28.148438 31.734375 -27.984375 C 31.765625 -27.828125 31.789062 -27.664062 31.8125 -27.5 L 30.046875 -27.5 C 30.160156 -26.976562 30.238281 -26.414062 30.28125 -25.8125 C 30.320312 -25.207031 30.34375 -24.578125 30.34375 -23.921875 C 30.34375 -23.753906 30.34375 -23.585938 30.34375 -23.421875 C 30.34375 -23.265625 30.34375 -23.101562 30.34375 -22.9375 Z M 13.484375 -24.703125 L 13.484375 -25.78125 L 4.8125 -25.78125 L 4.8125 -24.703125 Z M 21.171875 -22.109375 L 21.171875 -22.9375 L 14.546875 -22.9375 L 14.546875 -22.109375 Z M 24.703125 -8.671875 L 24.703125 -9.5 L 14.21875 -9.5 L 14.21875 -8.671875 Z M 18.875 -11.75 L 18.875 -12.296875 L 11.265625 -12.296875 L 11.265625 -11.75 Z M 18.875 -11.75 "/></g></g></g><g fill="#7f99b2" fill-opacity="1"><g transform="translate(149.548078, 155.204618)"><g><path d="M 39.546875 -1.515625 C 39.660156 -1.191406 39.703125 -0.921875 39.671875 -0.703125 L 36.375 -0.703125 C 36.375 -0.671875 36.375 -0.640625 36.375 -0.609375 C 36.375 -0.585938 36.375 -0.578125 36.375 -0.578125 C 36.351562 -0.460938 36.28125 -0.328125 36.15625 -0.171875 C 36.03125 -0.0234375 35.804688 0.046875 35.484375 0.046875 L 31.078125 0.046875 C 30.609375 0.046875 30.238281 -0.203125 29.96875 -0.703125 L 33.25 -0.703125 C 33.25 -0.703125 33.222656 -0.753906 33.171875 -0.859375 L 32.921875 -1.515625 L 29.71875 -1.515625 L 28.6875 -4.109375 L 31.078125 -4.109375 L 28.859375 -9.578125 L 25.609375 -9.578125 L 24.578125 -12.171875 L 26.765625 -12.171875 L 24.171875 -18.703125 L 26.0625 -18.703125 L 25.734375 -19.5625 L 22.6875 -19.5625 L 21 -23.71875 L 23.015625 -23.71875 L 22 -26.3125 L 21.75 -26.3125 C 21.75 -26.3125 21.734375 -26.296875 21.703125 -26.265625 L 20.71875 -23.71875 L 18.703125 -23.71875 L 17.0625 -19.5625 L 20.109375 -19.5625 L 19.734375 -18.703125 L 17.84375 -18.703125 L 16.484375 -15.25 L 20.4375 -15.25 L 20.4375 -14.796875 L 16.328125 -14.796875 L 15.578125 -12.953125 L 20.640625 -12.953125 C 21.179688 -12.953125 21.578125 -12.691406 21.828125 -12.171875 L 19.65625 -12.171875 C 19.65625 -12.171875 19.65625 -12.160156 19.65625 -12.140625 C 19.65625 -12.128906 19.65625 -12.125 19.65625 -12.125 L 20.671875 -9.578125 L 23.921875 -9.578125 L 24.375 -8.46875 C 24.507812 -8 24.457031 -7.601562 24.21875 -7.28125 C 24 -6.894531 23.640625 -6.703125 23.140625 -6.703125 L 14.140625 -6.703125 L 13.109375 -4.109375 L 10.734375 -4.109375 L 9.703125 -1.515625 L 12.90625 -1.515625 L 12.625 -0.828125 C 12.625 -0.796875 12.59375 -0.753906 12.53125 -0.703125 L 9.25 -0.703125 C 9.03125 -0.203125 8.675781 0.046875 8.1875 0.046875 L 3.65625 0.046875 C 3.332031 0.046875 3.109375 -0.0234375 2.984375 -0.171875 C 2.859375 -0.328125 2.78125 -0.460938 2.75 -0.578125 C 2.75 -0.628906 2.738281 -0.671875 2.71875 -0.703125 L 6 -0.703125 C 5.96875 -0.921875 6.007812 -1.191406 6.125 -1.515625 L 2.921875 -1.515625 C 2.921875 -1.546875 2.925781 -1.5625 2.9375 -1.5625 C 2.945312 -1.5625 2.953125 -1.5625 2.953125 -1.5625 L 3.953125 -4.109375 L 6.328125 -4.109375 L 8.546875 -9.578125 L 5.296875 -9.578125 L 6.328125 -12.171875 L 8.515625 -12.171875 L 11.140625 -18.703125 L 13.078125 -18.703125 L 13.40625 -19.5625 L 10.359375 -19.5625 L 12.046875 -23.71875 L 14.0625 -23.71875 L 15.09375 -26.3125 L 12.046875 -26.3125 L 13.5625 -30.046875 C 13.5625 -30.078125 13.566406 -30.101562 13.578125 -30.125 C 13.597656 -30.15625 13.609375 -30.1875 13.609375 -30.21875 L 11.875 -30.21875 C 11.9375 -30.351562 12 -30.492188 12.0625 -30.640625 C 12.132812 -30.796875 12.195312 -30.941406 12.25 -31.078125 L 17.390625 -31.078125 C 17.609375 -31.546875 17.828125 -31.941406 18.046875 -32.265625 C 18.265625 -32.597656 18.5 -32.859375 18.75 -33.046875 C 18.832031 -33.109375 18.921875 -33.175781 19.015625 -33.25 C 19.109375 -33.332031 19.210938 -33.40625 19.328125 -33.46875 C 19.378906 -33.488281 19.429688 -33.515625 19.484375 -33.546875 C 19.535156 -33.578125 19.578125 -33.601562 19.609375 -33.625 L 18.421875 -33.625 C 19.179688 -34.09375 20.03125 -34.328125 20.96875 -34.328125 C 21.894531 -34.328125 22.742188 -34.09375 23.515625 -33.625 L 24.75 -33.625 C 25.789062 -33.019531 26.515625 -32.171875 26.921875 -31.078125 L 21.78125 -31.078125 C 21.8125 -30.992188 21.835938 -30.914062 21.859375 -30.84375 C 21.890625 -30.78125 21.921875 -30.722656 21.953125 -30.671875 C 21.984375 -30.585938 22.050781 -30.4375 22.15625 -30.21875 L 23.921875 -30.21875 C 23.921875 -30.1875 23.925781 -30.15625 23.9375 -30.125 C 23.957031 -30.101562 23.96875 -30.078125 23.96875 -30.046875 L 25.484375 -26.3125 L 28.53125 -26.3125 L 29.59375 -23.71875 L 27.578125 -23.71875 L 29.265625 -19.5625 L 32.3125 -19.5625 L 32.640625 -18.703125 L 30.75 -18.703125 L 33.375 -12.171875 L 31.203125 -12.171875 L 32.234375 -9.578125 L 35.484375 -9.578125 L 37.703125 -4.109375 L 35.359375 -4.109375 L 36.375 -1.5625 C 36.375 -1.5625 36.375 -1.546875 36.375 -1.515625 Z M 18.78125 -5.1875 L 18.78125 -4.765625 L 25.6875 -4.765625 L 25.6875 -5.1875 Z M 11.640625 -2.921875 L 11.640625 -2.46875 L 16.15625 -2.46875 L 16.15625 -2.921875 Z M 11.640625 -2.921875 "/></g></g></g><g fill="#7f99b2" fill-opacity="1"><g transform="translate(191.974535, 155.204618)"><g><path d="M 15.75 -26.3125 L 15.75 -25.859375 L 11.921875 -25.859375 L 11.921875 -26.3125 Z M 4.40625 -4.4375 L 4.40625 -3.984375 L 1.640625 -3.984375 L 1.640625 -4.4375 Z M 11.09375 -24.25 L 9.53125 -24.25 L 9.53125 -21.671875 L 12.53125 -21.671875 L 12.53125 -17.515625 L 14.09375 -17.515625 L 14.09375 -16.65625 L 10.359375 -16.65625 L 10.359375 -10.109375 L 11.796875 -10.109375 L 11.796875 -7.515625 L 10.359375 -7.515625 L 10.359375 -5.75 L 12.171875 -5.75 L 12.171875 -3.203125 L 10.609375 -3.203125 L 10.609375 -1.4375 C 10.609375 -0.8125 10.457031 -0.421875 10.15625 -0.265625 C 9.851562 -0.117188 9.617188 -0.046875 9.453125 -0.046875 L 5.671875 -0.046875 C 5.484375 -0.046875 5.238281 -0.117188 4.9375 -0.265625 C 4.632812 -0.421875 4.484375 -0.8125 4.484375 -1.4375 L 4.484375 -3.203125 L 6.078125 -3.203125 L 6.078125 -5.75 L 4.28125 -5.75 L 4.28125 -7.515625 L 5.71875 -7.515625 L 5.71875 -10.109375 L 4.28125 -10.109375 L 4.28125 -16.65625 L 2.921875 -16.65625 L 2.921875 -17.515625 L 6.40625 -17.515625 L 6.40625 -21.671875 L 3.40625 -21.671875 L 3.40625 -24.25 L 5.015625 -24.25 L 5.015625 -28.15625 L 6.859375 -28.15625 L 6.859375 -29.015625 L 3.828125 -29.015625 L 3.828125 -31.578125 L 5.953125 -31.578125 L 5.953125 -32.515625 C 5.953125 -33.148438 6.128906 -33.539062 6.484375 -33.6875 C 6.847656 -33.84375 7.125 -33.921875 7.3125 -33.921875 L 11.671875 -33.921875 C 11.890625 -33.921875 12.160156 -33.84375 12.484375 -33.6875 C 12.816406 -33.539062 12.984375 -33.148438 12.984375 -32.515625 L 12.984375 -31.578125 L 9.90625 -31.578125 L 9.90625 -29.015625 L 15.203125 -29.015625 L 15.203125 -28.15625 L 11.09375 -28.15625 Z M 5.515625 -36.09375 C 5.316406 -36.34375 5.300781 -36.6875 5.46875 -37.125 L 6.984375 -40.609375 L 8.515625 -40.609375 L 9.625 -43.171875 L 8.09375 -43.171875 L 8.390625 -43.78125 C 8.609375 -44.269531 8.847656 -44.582031 9.109375 -44.71875 C 9.367188 -44.863281 9.609375 -44.9375 9.828125 -44.9375 L 10.640625 -44.9375 C 10.859375 -44.9375 11.035156 -44.894531 11.171875 -44.8125 C 11.316406 -44.726562 11.429688 -44.644531 11.515625 -44.5625 C 11.566406 -44.445312 11.613281 -44.304688 11.65625 -44.140625 C 11.695312 -43.984375 11.648438 -43.769531 11.515625 -43.5 L 11.34375 -43.171875 L 13.609375 -43.171875 L 12.328125 -40.609375 L 10.8125 -40.609375 L 8.921875 -36.796875 C 8.785156 -36.492188 8.617188 -36.234375 8.421875 -36.015625 C 8.148438 -35.796875 7.835938 -35.6875 7.484375 -35.6875 L 6.375 -35.6875 C 6.125 -35.6875 5.929688 -35.722656 5.796875 -35.796875 C 5.660156 -35.878906 5.566406 -35.976562 5.515625 -36.09375 Z M 5.515625 -36.09375 "/></g></g></g><g fill="#7f99b2" fill-opacity="1"><g transform="translate(209.200006, 155.204618)"><g><path d="M 29.921875 -11.546875 L 29.921875 -8.09375 C 29.921875 -7.851562 29.914062 -7.613281 29.90625 -7.375 C 29.894531 -7.144531 29.875 -6.921875 29.84375 -6.703125 L 32.890625 -6.703125 C 32.859375 -6.535156 32.835938 -6.367188 32.828125 -6.203125 C 32.816406 -6.035156 32.796875 -5.875 32.765625 -5.71875 L 27.296875 -5.71875 C 27.046875 -4.34375 26.582031 -3.203125 25.90625 -2.296875 C 25.789062 -2.109375 25.648438 -1.929688 25.484375 -1.765625 L 30.46875 -1.765625 C 29.394531 -0.585938 27.875 0 25.90625 0 L 7.3125 0 C 7.15625 0 6.925781 -0.0703125 6.625 -0.21875 C 6.320312 -0.375 6.171875 -0.765625 6.171875 -1.390625 L 6.171875 -1.765625 L 1.1875 -1.765625 L 1.1875 -4.6875 C 1.1875 -5.125 1.285156 -5.46875 1.484375 -5.71875 L 6.953125 -5.71875 C 7.085938 -5.875 7.242188 -5.972656 7.421875 -6.015625 C 7.597656 -6.054688 7.742188 -6.078125 7.859375 -6.078125 L 25.40625 -6.078125 C 25.757812 -6.078125 26.007812 -6.140625 26.15625 -6.265625 C 26.3125 -6.390625 26.414062 -6.507812 26.46875 -6.625 C 26.5 -6.644531 26.515625 -6.671875 26.515625 -6.703125 L 23.515625 -6.703125 C 23.734375 -7.140625 23.84375 -7.6875 23.84375 -8.34375 L 23.84375 -11.546875 L 27.375 -11.546875 L 27.375 -11.875 C 27.375 -12.894531 27.207031 -13.523438 26.875 -13.765625 C 26.550781 -14.015625 26.238281 -14.140625 25.9375 -14.140625 L 13.609375 -14.140625 C 13.171875 -14.140625 12.71875 -14.164062 12.25 -14.21875 C 11.78125 -14.28125 11.328125 -14.378906 10.890625 -14.515625 L 5.796875 -14.515625 C 5.390625 -14.648438 5 -14.835938 4.625 -15.078125 C 4.25 -15.328125 3.914062 -15.660156 3.625 -16.078125 C 3.101562 -16.785156 2.691406 -17.769531 2.390625 -19.03125 L 7.15625 -19.03125 C 7.125 -19.195312 7.09375 -19.363281 7.0625 -19.53125 C 7.039062 -19.695312 7.003906 -19.859375 6.953125 -20.015625 L 2.921875 -20.015625 C 2.867188 -20.429688 2.828125 -20.859375 2.796875 -21.296875 C 2.765625 -21.734375 2.75 -22.1875 2.75 -22.65625 L 2.75 -22.984375 L 5.515625 -22.984375 L 5.515625 -25.78125 C 5.515625 -25.832031 5.515625 -25.863281 5.515625 -25.875 C 5.515625 -25.894531 5.515625 -25.914062 5.515625 -25.9375 L 4.765625 -25.9375 C 4.765625 -25.9375 4.765625 -25.953125 4.765625 -25.984375 L 3.078125 -25.984375 C 3.078125 -26.972656 3.1875 -27.929688 3.40625 -28.859375 L 7.3125 -28.859375 C 7.5625 -29.898438 7.960938 -30.816406 8.515625 -31.609375 C 8.566406 -31.660156 8.601562 -31.703125 8.625 -31.734375 C 8.65625 -31.765625 8.6875 -31.789062 8.71875 -31.8125 L 3.734375 -31.8125 C 4.804688 -33.1875 6.398438 -33.875 8.515625 -33.875 L 26.234375 -33.875 C 26.421875 -33.875 26.65625 -33.796875 26.9375 -33.640625 C 27.226562 -33.492188 27.375 -33.101562 27.375 -32.46875 L 27.375 -31.8125 L 32.359375 -31.8125 L 32.359375 -29.1875 C 32.359375 -29.132812 32.359375 -29.078125 32.359375 -29.015625 C 32.359375 -28.960938 32.359375 -28.910156 32.359375 -28.859375 L 28.453125 -28.859375 C 28.390625 -28.390625 28.222656 -28.09375 27.953125 -27.96875 C 27.679688 -27.851562 27.476562 -27.796875 27.34375 -27.796875 L 10.609375 -27.796875 C 10.253906 -27.796875 10 -27.738281 9.84375 -27.625 C 9.695312 -27.519531 9.59375 -27.394531 9.53125 -27.25 C 9.3125 -26.925781 9.191406 -26.503906 9.171875 -25.984375 L 10.890625 -25.984375 C 10.890625 -25.953125 10.890625 -25.9375 10.890625 -25.9375 L 14.21875 -25.9375 C 14.21875 -25.882812 14.21875 -25.816406 14.21875 -25.734375 C 14.21875 -25.648438 14.21875 -25.582031 14.21875 -25.53125 L 14.21875 -22.984375 L 8.84375 -22.984375 L 8.84375 -22.484375 C 8.84375 -21.472656 9.003906 -20.84375 9.328125 -20.59375 C 9.660156 -20.34375 9.976562 -20.21875 10.28125 -20.21875 L 22.5625 -20.21875 C 22.863281 -20.21875 23.160156 -20.195312 23.453125 -20.15625 C 23.742188 -20.125 24.023438 -20.078125 24.296875 -20.015625 L 30.25 -20.015625 C 31.050781 -19.859375 31.753906 -19.53125 32.359375 -19.03125 L 25.6875 -19.03125 C 25.90625 -18.894531 26.097656 -18.738281 26.265625 -18.5625 C 26.429688 -18.382812 26.597656 -18.1875 26.765625 -17.96875 C 27.421875 -17.0625 27.875 -15.910156 28.125 -14.515625 L 33.21875 -14.515625 C 33.382812 -13.660156 33.46875 -12.726562 33.46875 -11.71875 L 33.46875 -11.546875 Z M 17.3125 -7.4375 L 17.3125 -8.515625 L 8.671875 -8.515625 L 8.671875 -7.4375 Z M 26.265625 -21.5 L 26.265625 -22.5625 L 20.34375 -22.5625 L 20.34375 -21.5 Z M 20.015625 -11.96875 L 20.015625 -12.53125 L 12.375 -12.53125 L 12.375 -11.96875 Z M 23.796875 -25.6875 L 23.796875 -26.234375 L 16.203125 -26.234375 L 16.203125 -25.6875 Z M 23.796875 -25.6875 "/></g></g></g><g fill="#7f99b2" fill-opacity="1"><g transform="translate(244.185394, 155.204618)"><g/></g></g><g fill="#7f99b2" fill-opacity="1"><g transform="translate(267.37195, 155.204618)"><g><path d="M 10.609375 -27.5 C 10.054688 -27.332031 9.644531 -27.03125 9.375 -26.59375 C 9.34375 -26.570312 9.3125 -26.53125 9.28125 -26.46875 C 9.257812 -26.414062 9.222656 -26.363281 9.171875 -26.3125 L 14.421875 -26.3125 C 14.316406 -26.113281 14.222656 -25.882812 14.140625 -25.625 C 14.054688 -25.363281 13.988281 -25.082031 13.9375 -24.78125 C 13.90625 -24.625 13.875 -24.460938 13.84375 -24.296875 C 13.820312 -24.128906 13.796875 -23.9375 13.765625 -23.71875 L 9 -23.71875 C 8.976562 -23.445312 8.957031 -23.144531 8.9375 -22.8125 C 8.925781 -22.488281 8.921875 -22.132812 8.921875 -21.75 L 8.921875 -19.5625 L 19.9375 -19.5625 L 19.9375 -18.703125 L 9.75 -18.703125 L 9.75 -12.171875 L 11.96875 -12.171875 C 11.96875 -11.179688 12.007812 -10.316406 12.09375 -9.578125 L 13.28125 -9.578125 C 13.300781 -9.492188 13.3125 -9.410156 13.3125 -9.328125 C 13.3125 -9.242188 13.328125 -9.160156 13.359375 -9.078125 C 13.472656 -8.316406 13.707031 -7.71875 14.0625 -7.28125 C 14.332031 -6.84375 14.742188 -6.539062 15.296875 -6.375 C 15.785156 -6.175781 16.484375 -6.078125 17.390625 -6.078125 L 32.140625 -6.078125 C 32.335938 -6.078125 32.578125 -5.992188 32.859375 -5.828125 C 33.148438 -5.671875 33.296875 -5.273438 33.296875 -4.640625 L 33.296875 -4.109375 L 29.46875 -4.109375 L 29.46875 -1.515625 L 32.84375 -1.515625 L 32.84375 -1.390625 C 32.84375 -1.253906 32.828125 -1.125 32.796875 -1 C 32.773438 -0.882812 32.75 -0.785156 32.71875 -0.703125 L 28.609375 -0.703125 C 28.503906 -0.367188 28.34375 -0.160156 28.125 -0.078125 C 27.90625 0.00390625 27.722656 0.046875 27.578125 0.046875 L 12.625 0.046875 C 10.8125 0.046875 9.273438 -0.1875 8.015625 -0.65625 C 7.984375 -0.65625 7.957031 -0.671875 7.9375 -0.703125 L 12.046875 -0.703125 C 11.742188 -0.804688 11.453125 -0.925781 11.171875 -1.0625 C 10.898438 -1.207031 10.644531 -1.359375 10.40625 -1.515625 L 7.03125 -1.515625 C 6.457031 -1.953125 5.960938 -2.421875 5.546875 -2.921875 C 5.441406 -3.109375 5.328125 -3.296875 5.203125 -3.484375 C 5.078125 -3.679688 4.957031 -3.890625 4.84375 -4.109375 L 8.640625 -4.109375 C 8.191406 -4.878906 7.847656 -5.828125 7.609375 -6.953125 C 7.492188 -7.359375 7.410156 -7.78125 7.359375 -8.21875 C 7.304688 -8.65625 7.25 -9.109375 7.1875 -9.578125 L 6 -9.578125 C 5.914062 -10.398438 5.875 -11.265625 5.875 -12.171875 L 3.65625 -12.171875 C 3.65625 -12.273438 3.65625 -12.390625 3.65625 -12.515625 C 3.65625 -12.640625 3.65625 -12.757812 3.65625 -12.875 L 3.65625 -18.703125 L 6.703125 -18.703125 L 6.703125 -19.5625 L 2.796875 -19.5625 L 2.796875 -21 C 2.796875 -21.96875 2.835938 -22.875 2.921875 -23.71875 L 7.734375 -23.71875 C 7.785156 -24.1875 7.832031 -24.640625 7.875 -25.078125 C 7.914062 -25.515625 7.976562 -25.925781 8.0625 -26.3125 L 2.796875 -26.3125 C 2.828125 -26.394531 2.847656 -26.484375 2.859375 -26.578125 C 2.867188 -26.671875 2.890625 -26.757812 2.921875 -26.84375 C 3.191406 -28.101562 3.628906 -29.226562 4.234375 -30.21875 L 11.34375 -30.21875 C 11.476562 -30.457031 11.628906 -30.675781 11.796875 -30.875 C 11.878906 -30.957031 11.9375 -31.023438 11.96875 -31.078125 L 10.40625 -31.078125 C 10.78125 -31.546875 11.210938 -31.957031 11.703125 -32.3125 C 12.203125 -32.664062 12.753906 -32.953125 13.359375 -33.171875 C 13.660156 -33.253906 13.953125 -33.335938 14.234375 -33.421875 C 14.523438 -33.503906 14.835938 -33.570312 15.171875 -33.625 L 7.890625 -33.625 C 8.765625 -33.789062 9.710938 -33.875 10.734375 -33.875 L 25.6875 -33.875 C 25.769531 -33.875 25.878906 -33.859375 26.015625 -33.828125 C 26.160156 -33.804688 26.285156 -33.738281 26.390625 -33.625 L 31.8125 -33.625 C 31.957031 -33.519531 32.066406 -33.375 32.140625 -33.1875 C 32.222656 -33.007812 32.265625 -32.757812 32.265625 -32.4375 L 32.265625 -31.078125 L 33.828125 -31.078125 L 33.828125 -30.21875 L 28.609375 -30.21875 L 28.609375 -29.265625 C 28.609375 -28.609375 28.460938 -28.195312 28.171875 -28.03125 C 27.890625 -27.875 27.65625 -27.796875 27.46875 -27.796875 L 12.703125 -27.796875 C 12.296875 -27.796875 11.910156 -27.773438 11.546875 -27.734375 C 11.191406 -27.691406 10.878906 -27.613281 10.609375 -27.5 Z M 20.84375 -9.078125 L 20.84375 -8.640625 L 29.796875 -8.640625 L 29.796875 -9.078125 Z M 12.90625 -21.90625 L 12.90625 -21.453125 L 21.90625 -21.453125 L 21.90625 -21.90625 Z M 17.390625 -16.40625 L 17.390625 -15.578125 L 30.75 -15.578125 L 30.75 -16.40625 Z M 10.96875 -12.171875 L 10.96875 -11.71875 L 15.953125 -11.71875 L 15.953125 -12.171875 Z M 10.96875 -12.171875 "/></g></g></g><g fill="#7f99b2" fill-opacity="1"><g transform="translate(302.27513, 155.204618)"><g><path d="M 34.90625 -18.828125 L 32.6875 -18.828125 L 32.6875 -17.84375 L 34.203125 -17.84375 L 34.203125 -12.984375 L 34.90625 -12.984375 L 34.90625 -12.875 C 34.90625 -11.851562 34.863281 -10.90625 34.78125 -10.03125 L 33.546875 -10.03125 C 33.515625 -9.457031 33.457031 -8.921875 33.375 -8.421875 C 33.289062 -7.929688 33.195312 -7.453125 33.09375 -6.984375 C 33.0625 -6.710938 33.003906 -6.453125 32.921875 -6.203125 C 32.847656 -5.960938 32.769531 -5.71875 32.6875 -5.46875 L 31.078125 -5.46875 C 31.023438 -5.300781 30.960938 -5.132812 30.890625 -4.96875 C 30.828125 -4.8125 30.753906 -4.648438 30.671875 -4.484375 L 33.375 -4.484375 C 33.070312 -3.878906 32.757812 -3.359375 32.4375 -2.921875 C 32 -2.398438 31.492188 -1.929688 30.921875 -1.515625 L 28.6875 -1.515625 C 28.414062 -1.359375 28.144531 -1.203125 27.875 -1.046875 C 27.601562 -0.898438 27.316406 -0.769531 27.015625 -0.65625 C 25.691406 -0.1875 24.140625 0.046875 22.359375 0.046875 L 12.328125 0.046875 C 10.523438 0.046875 8.992188 -0.1875 7.734375 -0.65625 C 7.429688 -0.769531 7.132812 -0.898438 6.84375 -1.046875 C 6.550781 -1.203125 6.285156 -1.359375 6.046875 -1.515625 L 8.265625 -1.515625 C 7.660156 -1.929688 7.148438 -2.410156 6.734375 -2.953125 C 6.578125 -3.171875 6.421875 -3.410156 6.265625 -3.671875 C 6.117188 -3.929688 5.976562 -4.203125 5.84375 -4.484375 L 2.0625 -4.484375 C 1.976562 -4.648438 1.898438 -4.8125 1.828125 -4.96875 C 1.765625 -5.132812 1.703125 -5.300781 1.640625 -5.46875 L 4.3125 -5.46875 C 4.226562 -5.71875 4.148438 -5.960938 4.078125 -6.203125 C 4.015625 -6.453125 3.957031 -6.710938 3.90625 -6.984375 C 3.789062 -7.421875 3.695312 -7.894531 3.625 -8.40625 C 3.5625 -8.914062 3.503906 -9.457031 3.453125 -10.03125 L 2.171875 -10.03125 C 2.097656 -10.90625 2.0625 -11.851562 2.0625 -12.875 L 2.0625 -12.984375 L 3.53125 -12.984375 L 3.53125 -17.84375 L 1.609375 -17.84375 L 1.609375 -18.828125 L 4.5625 -18.828125 L 4.5625 -21 C 4.5625 -23.082031 4.726562 -24.878906 5.0625 -26.390625 L 2.0625 -26.390625 C 2.082031 -26.472656 2.09375 -26.554688 2.09375 -26.640625 C 2.09375 -26.722656 2.109375 -26.789062 2.140625 -26.84375 C 2.328125 -27.769531 2.613281 -28.609375 3 -29.359375 L 4.9375 -29.359375 C 5.175781 -29.929688 5.476562 -30.4375 5.84375 -30.875 C 5.894531 -30.976562 5.96875 -31.070312 6.0625 -31.15625 C 6.15625 -31.238281 6.242188 -31.320312 6.328125 -31.40625 L 8.59375 -31.40625 C 9.332031 -32.175781 10.222656 -32.765625 11.265625 -33.171875 C 12.578125 -33.640625 14.125 -33.875 15.90625 -33.875 L 25.90625 -33.875 C 27.6875 -33.875 29.234375 -33.640625 30.546875 -33.171875 C 31.640625 -32.765625 32.539062 -32.175781 33.25 -31.40625 L 31 -31.40625 C 31.082031 -31.320312 31.160156 -31.238281 31.234375 -31.15625 C 31.316406 -31.070312 31.398438 -30.976562 31.484375 -30.875 C 31.847656 -30.4375 32.148438 -29.929688 32.390625 -29.359375 L 30.5 -29.359375 C 30.882812 -28.609375 31.171875 -27.769531 31.359375 -26.84375 C 31.390625 -26.789062 31.40625 -26.722656 31.40625 -26.640625 C 31.40625 -26.554688 31.421875 -26.472656 31.453125 -26.390625 L 34.453125 -26.390625 C 34.585938 -25.617188 34.695312 -24.785156 34.78125 -23.890625 C 34.863281 -23.003906 34.90625 -22.039062 34.90625 -21 Z M 26.5625 -17.84375 L 25.53125 -17.84375 L 25.53125 -18.828125 L 28.78125 -18.828125 L 28.78125 -21.703125 C 28.78125 -22.304688 28.765625 -22.859375 28.734375 -23.359375 C 28.703125 -23.867188 28.648438 -24.332031 28.578125 -24.75 C 28.429688 -25.40625 28.238281 -25.953125 28 -26.390625 L 25 -26.390625 C 24.96875 -26.441406 24.941406 -26.484375 24.921875 -26.515625 C 24.910156 -26.546875 24.894531 -26.570312 24.875 -26.59375 C 24.59375 -26.976562 24.191406 -27.28125 23.671875 -27.5 C 23.398438 -27.582031 23.085938 -27.648438 22.734375 -27.703125 C 22.378906 -27.765625 21.984375 -27.796875 21.546875 -27.796875 L 11.921875 -27.796875 C 11.484375 -27.796875 11.09375 -27.765625 10.75 -27.703125 C 10.40625 -27.648438 10.097656 -27.582031 9.828125 -27.5 C 9.273438 -27.28125 8.863281 -26.976562 8.59375 -26.59375 C 8.5625 -26.570312 8.539062 -26.546875 8.53125 -26.515625 C 8.519531 -26.484375 8.5 -26.441406 8.46875 -26.390625 L 11.46875 -26.390625 C 11.195312 -25.953125 11.003906 -25.40625 10.890625 -24.75 C 10.804688 -24.332031 10.75 -23.867188 10.71875 -23.359375 C 10.695312 -22.859375 10.6875 -22.304688 10.6875 -21.703125 L 10.6875 -18.828125 L 18.875 -18.828125 L 18.875 -17.84375 L 9.625 -17.84375 L 9.625 -12.984375 L 8.140625 -12.984375 L 8.140625 -12.125 C 8.140625 -11.351562 8.179688 -10.65625 8.265625 -10.03125 L 9.53125 -10.03125 C 9.5625 -9.863281 9.582031 -9.695312 9.59375 -9.53125 C 9.613281 -9.375 9.632812 -9.222656 9.65625 -9.078125 C 9.789062 -8.285156 10.023438 -7.6875 10.359375 -7.28125 C 10.628906 -6.84375 11.023438 -6.539062 11.546875 -6.375 C 12.097656 -6.175781 12.8125 -6.078125 13.6875 -6.078125 L 23.3125 -6.078125 C 24.21875 -6.078125 24.914062 -6.175781 25.40625 -6.375 C 25.957031 -6.539062 26.367188 -6.84375 26.640625 -7.28125 C 26.804688 -7.5 26.941406 -7.765625 27.046875 -8.078125 C 27.160156 -8.390625 27.257812 -8.722656 27.34375 -9.078125 C 27.363281 -9.222656 27.378906 -9.375 27.390625 -9.53125 C 27.410156 -9.695312 27.4375 -9.863281 27.46875 -10.03125 L 28.6875 -10.03125 C 28.71875 -10.332031 28.738281 -10.660156 28.75 -11.015625 C 28.769531 -11.367188 28.78125 -11.738281 28.78125 -12.125 L 28.78125 -12.984375 L 26.5625 -12.984375 Z M 24.21875 -10.359375 L 24.21875 -10.890625 L 18.21875 -10.890625 L 18.21875 -10.359375 Z M 16.359375 -8.34375 L 16.359375 -8.640625 L 12.453125 -8.640625 L 12.453125 -8.34375 Z M 24.21875 -23.796875 L 24.21875 -24.578125 L 16.40625 -24.578125 L 16.40625 -23.796875 Z M 17.1875 -13.734375 L 17.1875 -14.140625 L 11.421875 -14.140625 L 11.421875 -13.734375 Z M 17.1875 -13.734375 "/></g></g></g><g fill="#7f99b2" fill-opacity="1"><g transform="translate(341.207143, 155.204618)"><g><path d="M 35.890625 -26.96875 L 31.359375 -26.96875 L 31.359375 -24.015625 L 34.203125 -24.015625 L 34.203125 -16.40625 L 35.84375 -16.40625 L 35.84375 -15.421875 L 32.390625 -15.421875 L 32.390625 -10.5625 L 31.15625 -10.5625 L 31.15625 -7.609375 L 35.03125 -7.609375 L 35.03125 -5.265625 C 35.03125 -4.847656 35.015625 -4.453125 34.984375 -4.078125 C 34.953125 -3.710938 34.910156 -3.378906 34.859375 -3.078125 L 31.53125 -3.078125 C 31.5 -2.890625 31.457031 -2.710938 31.40625 -2.546875 C 31.351562 -2.378906 31.300781 -2.226562 31.25 -2.09375 L 31.6875 -2.09375 C 31.632812 -1.90625 31.570312 -1.734375 31.5 -1.578125 C 31.4375 -1.429688 31.351562 -1.289062 31.25 -1.15625 C 30.664062 -0.351562 29.773438 0.046875 28.578125 0.046875 L 25.5625 0.046875 C 25.019531 0.046875 24.554688 0.00390625 24.171875 -0.078125 C 23.984375 -0.140625 23.789062 -0.203125 23.59375 -0.265625 C 23.40625 -0.335938 23.226562 -0.425781 23.0625 -0.53125 C 22.726562 -0.726562 22.425781 -1.03125 22.15625 -1.4375 C 22.101562 -1.519531 22.035156 -1.625 21.953125 -1.75 C 21.867188 -1.875 21.785156 -1.988281 21.703125 -2.09375 L 19.40625 -2.09375 C 19.320312 -2.226562 19.234375 -2.363281 19.140625 -2.5 C 19.046875 -2.644531 18.941406 -2.796875 18.828125 -2.953125 L 18.75 -3.078125 L 24.046875 -3.078125 L 21.5 -7.609375 L 17.640625 -7.609375 L 15.984375 -10.5625 L 17.21875 -10.5625 L 14.515625 -15.421875 L 17.1875 -15.421875 L 16.609375 -16.40625 L 15.75 -16.40625 L 11.46875 -24.015625 L 9.984375 -24.015625 L 9.984375 -16.40625 L 12.984375 -16.40625 L 12.984375 -15.421875 L 8.1875 -15.421875 L 8.1875 -10.5625 L 10.484375 -10.5625 L 10.484375 -3.078125 L 7.609375 -3.078125 L 7.609375 -2.09375 L 10.9375 -2.09375 L 10.9375 -1.390625 C 10.9375 -0.765625 10.785156 -0.367188 10.484375 -0.203125 C 10.179688 -0.0351562 9.945312 0.046875 9.78125 0.046875 L 6.125 0.046875 C 5.9375 0.046875 5.691406 -0.0351562 5.390625 -0.203125 C 5.085938 -0.367188 4.9375 -0.765625 4.9375 -1.390625 L 4.9375 -2.09375 L 1.609375 -2.09375 L 1.609375 -3.078125 L 4.484375 -3.078125 L 4.484375 -7.609375 L 0.828125 -7.609375 L 0.828125 -10.5625 L 2.171875 -10.5625 L 2.171875 -15.421875 L 1.390625 -15.421875 L 1.390625 -16.40625 L 3.984375 -16.40625 L 3.984375 -24.015625 L 1.15625 -24.015625 L 1.15625 -26.96875 L 3.703125 -26.96875 L 3.703125 -28.578125 C 3.703125 -28.648438 3.703125 -28.722656 3.703125 -28.796875 C 3.703125 -28.867188 3.703125 -28.941406 3.703125 -29.015625 L 1.359375 -29.015625 C 1.378906 -29.648438 1.425781 -30.210938 1.5 -30.703125 C 1.570312 -31.203125 1.675781 -31.628906 1.8125 -31.984375 L 4.84375 -31.984375 C 4.988281 -32.304688 5.128906 -32.550781 5.265625 -32.71875 C 5.867188 -33.488281 6.757812 -33.875 7.9375 -33.875 L 10.96875 -33.875 C 11.269531 -33.875 11.546875 -33.863281 11.796875 -33.84375 C 12.046875 -33.832031 12.265625 -33.816406 12.453125 -33.796875 C 12.867188 -33.710938 13.238281 -33.546875 13.5625 -33.296875 C 13.84375 -33.109375 14.144531 -32.796875 14.46875 -32.359375 C 14.519531 -32.296875 14.566406 -32.226562 14.609375 -32.15625 C 14.648438 -32.09375 14.6875 -32.035156 14.71875 -31.984375 L 11.671875 -31.984375 C 11.785156 -31.816406 11.890625 -31.644531 11.984375 -31.46875 C 12.078125 -31.289062 12.179688 -31.09375 12.296875 -30.875 L 13.359375 -29.015625 L 15.703125 -29.015625 L 16.859375 -26.96875 L 14.3125 -26.96875 L 15.984375 -24.015625 L 18.828125 -24.015625 L 23.109375 -16.40625 L 23.96875 -16.40625 L 24.5 -15.421875 L 21.828125 -15.421875 L 24.546875 -10.5625 L 23.3125 -10.5625 L 24.875 -7.765625 C 24.925781 -7.679688 24.96875 -7.640625 25 -7.640625 L 25.203125 -7.640625 C 25.203125 -7.671875 25.203125 -7.6875 25.203125 -7.6875 C 25.203125 -7.6875 25.203125 -7.703125 25.203125 -7.734375 L 25.203125 -10.5625 L 26.4375 -10.5625 L 26.4375 -15.421875 L 26.109375 -15.421875 L 26.109375 -16.40625 L 28.28125 -16.40625 L 28.28125 -24.015625 L 22.078125 -24.015625 L 22.078125 -26.96875 L 27.953125 -26.96875 L 27.953125 -29.015625 L 25.609375 -29.015625 L 25.609375 -31.984375 L 28.65625 -31.984375 L 28.65625 -32.4375 C 28.65625 -33.09375 28.804688 -33.492188 29.109375 -33.640625 C 29.410156 -33.796875 29.640625 -33.875 29.796875 -33.875 L 33.46875 -33.875 C 33.65625 -33.875 33.890625 -33.796875 34.171875 -33.640625 C 34.460938 -33.492188 34.609375 -33.09375 34.609375 -32.4375 L 34.609375 -31.984375 L 31.578125 -31.984375 L 31.578125 -29.015625 L 35.890625 -29.015625 Z M 21.375 -30.75 L 21.375 -31.28125 L 15.375 -31.28125 L 15.375 -30.75 Z M 18.375 -4.765625 L 18.375 -5.21875 L 12.625 -5.21875 L 12.625 -4.765625 Z M 24.703125 -27.875 L 24.703125 -28.328125 L 18.953125 -28.328125 L 18.953125 -27.875 Z M 24.703125 -27.875 "/></g></g></g><g fill="#7f99b2" fill-opacity="1"><g transform="translate(380.098068, 155.204618)"><g><path d="M 27.953125 -32.359375 L 32.5625 -32.359375 L 32.5625 -31.53125 L 27.953125 -31.53125 L 27.953125 -29.265625 C 27.953125 -29.210938 27.953125 -29.164062 27.953125 -29.125 C 27.953125 -29.082031 27.953125 -29.035156 27.953125 -28.984375 L 30.5 -28.984375 C 30.445312 -28.460938 30.28125 -28.140625 30 -28.015625 C 29.726562 -27.890625 29.523438 -27.828125 29.390625 -27.828125 L 5.75 -27.875 C 5.613281 -27.875 5.410156 -27.929688 5.140625 -28.046875 C 4.867188 -28.171875 4.703125 -28.484375 4.640625 -28.984375 L 2.09375 -28.984375 C 2.070312 -29.035156 2.0625 -29.128906 2.0625 -29.265625 L 2.0625 -31.53125 L 6.65625 -31.53125 L 6.65625 -32.359375 L 2.0625 -32.359375 L 2.0625 -32.46875 C 2.0625 -33.132812 2.203125 -33.546875 2.484375 -33.703125 C 2.773438 -33.867188 3.015625 -33.953125 3.203125 -33.953125 L 26.796875 -33.953125 C 26.992188 -33.953125 27.234375 -33.867188 27.515625 -33.703125 C 27.804688 -33.546875 27.953125 -33.148438 27.953125 -32.515625 Z M 30.375 -3.171875 L 33.75 -3.171875 L 33.75 -2.34375 L 30.421875 -2.34375 L 30.421875 -1.390625 C 30.421875 -0.765625 30.269531 -0.367188 29.96875 -0.203125 C 29.664062 -0.0351562 29.421875 0.046875 29.234375 0.046875 L 14.640625 0.046875 C 12.828125 0.046875 11.289062 -0.1875 10.03125 -0.65625 C 9.019531 -1.039062 8.128906 -1.601562 7.359375 -2.34375 L 10.734375 -2.34375 C 10.617188 -2.445312 10.519531 -2.539062 10.4375 -2.625 C 10.351562 -2.707031 10.269531 -2.804688 10.1875 -2.921875 C 10.164062 -2.972656 10.140625 -3.019531 10.109375 -3.0625 C 10.085938 -3.101562 10.0625 -3.140625 10.03125 -3.171875 L 6.625 -3.171875 C 5.882812 -4.179688 5.347656 -5.441406 5.015625 -6.953125 C 5.015625 -6.972656 5.003906 -6.988281 4.984375 -7 C 4.972656 -7.019531 4.96875 -7.03125 4.96875 -7.03125 L 8.59375 -7.03125 C 8.425781 -7.820312 8.300781 -8.671875 8.21875 -9.578125 L 4.84375 -9.578125 C 4.820312 -10.234375 4.785156 -10.929688 4.734375 -11.671875 L 8.75 -11.671875 C 8.75 -11.722656 8.75 -11.765625 8.75 -11.796875 C 8.75 -11.828125 8.75 -11.851562 8.75 -11.875 L 8.75 -12.703125 L 4.734375 -12.703125 L 4.765625 -13.6875 L 7.234375 -13.6875 L 7.234375 -14.515625 L 4.734375 -14.515625 L 4.765625 -16.984375 L 6.65625 -16.984375 L 6.65625 -17.265625 C 6.707031 -17.429688 6.757812 -17.582031 6.8125 -17.71875 C 6.875 -17.851562 6.929688 -17.988281 6.984375 -18.125 L 5.09375 -18.125 C 5.125 -18.15625 5.140625 -18.191406 5.140625 -18.234375 C 5.140625 -18.273438 5.15625 -18.304688 5.1875 -18.328125 C 5.84375 -19.398438 6.785156 -19.976562 8.015625 -20.0625 L 29.234375 -20.109375 C 29.390625 -20.109375 29.617188 -20.023438 29.921875 -19.859375 C 30.222656 -19.691406 30.375 -19.289062 30.375 -18.65625 L 30.375 -18.125 L 32.265625 -18.125 L 32.265625 -16.984375 L 30.375 -16.984375 L 30.375 -15.421875 C 30.375 -15.222656 30.351562 -15.046875 30.3125 -14.890625 C 30.269531 -14.742188 30.222656 -14.617188 30.171875 -14.515625 L 32.6875 -14.515625 C 32.570312 -14.296875 32.414062 -14.15625 32.21875 -14.09375 C 32.03125 -14.039062 31.867188 -14.015625 31.734375 -14.015625 L 13.359375 -14.015625 C 13.359375 -14.015625 13.359375 -13.988281 13.359375 -13.9375 C 13.359375 -13.882812 13.359375 -13.800781 13.359375 -13.6875 L 10.859375 -13.6875 C 10.859375 -13.582031 10.859375 -13.4375 10.859375 -13.25 C 10.859375 -13.070312 10.859375 -12.890625 10.859375 -12.703125 L 26.015625 -12.703125 C 26.015625 -12.535156 26.015625 -12.351562 26.015625 -12.15625 C 26.015625 -11.96875 26.015625 -11.804688 26.015625 -11.671875 L 10.8125 -11.671875 C 10.8125 -11.484375 10.8125 -11.332031 10.8125 -11.21875 C 10.8125 -11.113281 10.8125 -11.0625 10.8125 -11.0625 C 10.84375 -10.945312 10.859375 -10.828125 10.859375 -10.703125 C 10.859375 -10.585938 10.867188 -10.457031 10.890625 -10.3125 C 10.941406 -10.070312 11.007812 -9.828125 11.09375 -9.578125 L 14.421875 -9.578125 C 14.566406 -9.140625 14.734375 -8.785156 14.921875 -8.515625 C 15.253906 -8.078125 15.679688 -7.773438 16.203125 -7.609375 C 16.691406 -7.410156 17.390625 -7.3125 18.296875 -7.3125 L 32.8125 -7.3125 C 32.882812 -7.3125 32.992188 -7.296875 33.140625 -7.265625 C 33.296875 -7.242188 33.429688 -7.164062 33.546875 -7.03125 L 29.921875 -7.03125 C 30.066406 -6.914062 30.175781 -6.769531 30.25 -6.59375 C 30.332031 -6.414062 30.375 -6.175781 30.375 -5.875 Z M 6.984375 -22.65625 L 6.984375 -22.203125 L 20.59375 -22.203125 L 20.59375 -22.65625 Z M 19.734375 -9.453125 L 19.734375 -9 L 28.859375 -9 L 28.859375 -9.453125 Z M 12.828125 -26.0625 L 12.828125 -25.40625 L 26.765625 -25.40625 L 26.765625 -26.0625 Z M 12.828125 -26.0625 "/></g></g></g><g fill="#7f99b2" fill-opacity="1"><g transform="translate(414.631245, 155.204618)"><g><path d="M 10.609375 -27.5 C 10.054688 -27.332031 9.644531 -27.03125 9.375 -26.59375 C 9.34375 -26.570312 9.3125 -26.53125 9.28125 -26.46875 C 9.257812 -26.414062 9.222656 -26.363281 9.171875 -26.3125 L 14.421875 -26.3125 C 14.316406 -26.113281 14.222656 -25.882812 14.140625 -25.625 C 14.054688 -25.363281 13.988281 -25.082031 13.9375 -24.78125 C 13.90625 -24.625 13.875 -24.460938 13.84375 -24.296875 C 13.820312 -24.128906 13.796875 -23.9375 13.765625 -23.71875 L 9 -23.71875 C 8.976562 -23.445312 8.957031 -23.144531 8.9375 -22.8125 C 8.925781 -22.488281 8.921875 -22.132812 8.921875 -21.75 L 8.921875 -19.5625 L 19.9375 -19.5625 L 19.9375 -18.703125 L 9.75 -18.703125 L 9.75 -12.171875 L 11.96875 -12.171875 C 11.96875 -11.179688 12.007812 -10.316406 12.09375 -9.578125 L 13.28125 -9.578125 C 13.300781 -9.492188 13.3125 -9.410156 13.3125 -9.328125 C 13.3125 -9.242188 13.328125 -9.160156 13.359375 -9.078125 C 13.472656 -8.316406 13.707031 -7.71875 14.0625 -7.28125 C 14.332031 -6.84375 14.742188 -6.539062 15.296875 -6.375 C 15.785156 -6.175781 16.484375 -6.078125 17.390625 -6.078125 L 32.140625 -6.078125 C 32.335938 -6.078125 32.578125 -5.992188 32.859375 -5.828125 C 33.148438 -5.671875 33.296875 -5.273438 33.296875 -4.640625 L 33.296875 -4.109375 L 29.46875 -4.109375 L 29.46875 -1.515625 L 32.84375 -1.515625 L 32.84375 -1.390625 C 32.84375 -1.253906 32.828125 -1.125 32.796875 -1 C 32.773438 -0.882812 32.75 -0.785156 32.71875 -0.703125 L 28.609375 -0.703125 C 28.503906 -0.367188 28.34375 -0.160156 28.125 -0.078125 C 27.90625 0.00390625 27.722656 0.046875 27.578125 0.046875 L 12.625 0.046875 C 10.8125 0.046875 9.273438 -0.1875 8.015625 -0.65625 C 7.984375 -0.65625 7.957031 -0.671875 7.9375 -0.703125 L 12.046875 -0.703125 C 11.742188 -0.804688 11.453125 -0.925781 11.171875 -1.0625 C 10.898438 -1.207031 10.644531 -1.359375 10.40625 -1.515625 L 7.03125 -1.515625 C 6.457031 -1.953125 5.960938 -2.421875 5.546875 -2.921875 C 5.441406 -3.109375 5.328125 -3.296875 5.203125 -3.484375 C 5.078125 -3.679688 4.957031 -3.890625 4.84375 -4.109375 L 8.640625 -4.109375 C 8.191406 -4.878906 7.847656 -5.828125 7.609375 -6.953125 C 7.492188 -7.359375 7.410156 -7.78125 7.359375 -8.21875 C 7.304688 -8.65625 7.25 -9.109375 7.1875 -9.578125 L 6 -9.578125 C 5.914062 -10.398438 5.875 -11.265625 5.875 -12.171875 L 3.65625 -12.171875 C 3.65625 -12.273438 3.65625 -12.390625 3.65625 -12.515625 C 3.65625 -12.640625 3.65625 -12.757812 3.65625 -12.875 L 3.65625 -18.703125 L 6.703125 -18.703125 L 6.703125 -19.5625 L 2.796875 -19.5625 L 2.796875 -21 C 2.796875 -21.96875 2.835938 -22.875 2.921875 -23.71875 L 7.734375 -23.71875 C 7.785156 -24.1875 7.832031 -24.640625 7.875 -25.078125 C 7.914062 -25.515625 7.976562 -25.925781 8.0625 -26.3125 L 2.796875 -26.3125 C 2.828125 -26.394531 2.847656 -26.484375 2.859375 -26.578125 C 2.867188 -26.671875 2.890625 -26.757812 2.921875 -26.84375 C 3.191406 -28.101562 3.628906 -29.226562 4.234375 -30.21875 L 11.34375 -30.21875 C 11.476562 -30.457031 11.628906 -30.675781 11.796875 -30.875 C 11.878906 -30.957031 11.9375 -31.023438 11.96875 -31.078125 L 10.40625 -31.078125 C 10.78125 -31.546875 11.210938 -31.957031 11.703125 -32.3125 C 12.203125 -32.664062 12.753906 -32.953125 13.359375 -33.171875 C 13.660156 -33.253906 13.953125 -33.335938 14.234375 -33.421875 C 14.523438 -33.503906 14.835938 -33.570312 15.171875 -33.625 L 7.890625 -33.625 C 8.765625 -33.789062 9.710938 -33.875 10.734375 -33.875 L 25.6875 -33.875 C 25.769531 -33.875 25.878906 -33.859375 26.015625 -33.828125 C 26.160156 -33.804688 26.285156 -33.738281 26.390625 -33.625 L 31.8125 -33.625 C 31.957031 -33.519531 32.066406 -33.375 32.140625 -33.1875 C 32.222656 -33.007812 32.265625 -32.757812 32.265625 -32.4375 L 32.265625 -31.078125 L 33.828125 -31.078125 L 33.828125 -30.21875 L 28.609375 -30.21875 L 28.609375 -29.265625 C 28.609375 -28.609375 28.460938 -28.195312 28.171875 -28.03125 C 27.890625 -27.875 27.65625 -27.796875 27.46875 -27.796875 L 12.703125 -27.796875 C 12.296875 -27.796875 11.910156 -27.773438 11.546875 -27.734375 C 11.191406 -27.691406 10.878906 -27.613281 10.609375 -27.5 Z M 20.84375 -9.078125 L 20.84375 -8.640625 L 29.796875 -8.640625 L 29.796875 -9.078125 Z M 12.90625 -21.90625 L 12.90625 -21.453125 L 21.90625 -21.453125 L 21.90625 -21.90625 Z M 17.390625 -16.40625 L 17.390625 -15.578125 L 30.75 -15.578125 L 30.75 -16.40625 Z M 10.96875 -12.171875 L 10.96875 -11.71875 L 15.953125 -11.71875 L 15.953125 -12.171875 Z M 10.96875 -12.171875 "/></g></g></g><g fill="#7f99b2" fill-opacity="1"><g transform="translate(449.534397, 155.204618)"><g><path d="M 33.09375 -33.875 C 33.28125 -33.875 33.523438 -33.796875 33.828125 -33.640625 C 34.128906 -33.492188 34.28125 -33.101562 34.28125 -32.46875 L 34.28125 -31.15625 L 31.125 -31.15625 L 31.125 -29.265625 C 31.125 -28.578125 30.972656 -28.160156 30.671875 -28.015625 C 30.367188 -27.867188 30.117188 -27.796875 29.921875 -27.796875 L 19.359375 -27.796875 L 19.359375 -26.5625 L 27.671875 -26.5625 L 27.671875 -25.5625 L 20.1875 -25.5625 L 20.1875 -19.78125 L 23.59375 -19.78125 L 23.59375 -16.765625 L 20.84375 -16.765625 L 20.84375 -12.25 L 24.046875 -12.25 L 24.046875 -11.265625 L 20.1875 -11.265625 L 20.1875 -8.296875 L 24.046875 -8.296875 L 24.046875 -5.34375 L 21.578125 -5.34375 L 22.8125 -5.34375 L 22.8125 -2.421875 L 23.890625 -2.421875 L 23.890625 -1.390625 C 23.890625 -0.765625 23.738281 -0.375 23.4375 -0.21875 C 23.132812 -0.0703125 22.898438 0 22.734375 0 L 18.90625 0 C 18.738281 0 18.503906 -0.0703125 18.203125 -0.21875 C 17.910156 -0.375 17.765625 -0.765625 17.765625 -1.390625 L 17.765625 -2.421875 L 14.1875 -2.421875 L 14.1875 -5.34375 L 16.4375 -5.34375 L 16.4375 -8.296875 L 14.0625 -8.296875 L 14.0625 -11.265625 L 16.4375 -11.265625 L 16.4375 -12.25 L 14.71875 -12.25 L 14.71875 -16.765625 L 16.4375 -16.765625 L 16.4375 -19.78125 L 14.0625 -19.78125 L 14.0625 -25.5625 L 17.765625 -25.5625 L 17.765625 -26.5625 L 13.28125 -26.5625 L 13.28125 -27.796875 L 2.71875 -27.796875 C 2.519531 -27.796875 2.269531 -27.867188 1.96875 -28.015625 C 1.664062 -28.160156 1.515625 -28.578125 1.515625 -29.265625 L 1.515625 -31.15625 L 4.6875 -31.15625 L 4.6875 -32.46875 C 4.6875 -33.101562 4.835938 -33.492188 5.140625 -33.640625 C 5.441406 -33.796875 5.6875 -33.875 5.875 -33.875 Z M 28.859375 -22.453125 L 28.859375 -23.515625 L 22.890625 -23.515625 L 22.890625 -22.453125 Z M 12.328125 -25.03125 L 12.328125 -25.5625 L 4.6875 -25.5625 L 4.6875 -25.03125 Z M 12.328125 -25.03125 "/></g></g></g><g fill="#7f99b2" fill-opacity="1"><g transform="translate(487.767551, 155.204618)"><g><path d="M 39.546875 -1.515625 C 39.660156 -1.191406 39.703125 -0.921875 39.671875 -0.703125 L 36.375 -0.703125 C 36.375 -0.671875 36.375 -0.640625 36.375 -0.609375 C 36.375 -0.585938 36.375 -0.578125 36.375 -0.578125 C 36.351562 -0.460938 36.28125 -0.328125 36.15625 -0.171875 C 36.03125 -0.0234375 35.804688 0.046875 35.484375 0.046875 L 31.078125 0.046875 C 30.609375 0.046875 30.238281 -0.203125 29.96875 -0.703125 L 33.25 -0.703125 C 33.25 -0.703125 33.222656 -0.753906 33.171875 -0.859375 L 32.921875 -1.515625 L 29.71875 -1.515625 L 28.6875 -4.109375 L 31.078125 -4.109375 L 28.859375 -9.578125 L 25.609375 -9.578125 L 24.578125 -12.171875 L 26.765625 -12.171875 L 24.171875 -18.703125 L 26.0625 -18.703125 L 25.734375 -19.5625 L 22.6875 -19.5625 L 21 -23.71875 L 23.015625 -23.71875 L 22 -26.3125 L 21.75 -26.3125 C 21.75 -26.3125 21.734375 -26.296875 21.703125 -26.265625 L 20.71875 -23.71875 L 18.703125 -23.71875 L 17.0625 -19.5625 L 20.109375 -19.5625 L 19.734375 -18.703125 L 17.84375 -18.703125 L 16.484375 -15.25 L 20.4375 -15.25 L 20.4375 -14.796875 L 16.328125 -14.796875 L 15.578125 -12.953125 L 20.640625 -12.953125 C 21.179688 -12.953125 21.578125 -12.691406 21.828125 -12.171875 L 19.65625 -12.171875 C 19.65625 -12.171875 19.65625 -12.160156 19.65625 -12.140625 C 19.65625 -12.128906 19.65625 -12.125 19.65625 -12.125 L 20.671875 -9.578125 L 23.921875 -9.578125 L 24.375 -8.46875 C 24.507812 -8 24.457031 -7.601562 24.21875 -7.28125 C 24 -6.894531 23.640625 -6.703125 23.140625 -6.703125 L 14.140625 -6.703125 L 13.109375 -4.109375 L 10.734375 -4.109375 L 9.703125 -1.515625 L 12.90625 -1.515625 L 12.625 -0.828125 C 12.625 -0.796875 12.59375 -0.753906 12.53125 -0.703125 L 9.25 -0.703125 C 9.03125 -0.203125 8.675781 0.046875 8.1875 0.046875 L 3.65625 0.046875 C 3.332031 0.046875 3.109375 -0.0234375 2.984375 -0.171875 C 2.859375 -0.328125 2.78125 -0.460938 2.75 -0.578125 C 2.75 -0.628906 2.738281 -0.671875 2.71875 -0.703125 L 6 -0.703125 C 5.96875 -0.921875 6.007812 -1.191406 6.125 -1.515625 L 2.921875 -1.515625 C 2.921875 -1.546875 2.925781 -1.5625 2.9375 -1.5625 C 2.945312 -1.5625 2.953125 -1.5625 2.953125 -1.5625 L 3.953125 -4.109375 L 6.328125 -4.109375 L 8.546875 -9.578125 L 5.296875 -9.578125 L 6.328125 -12.171875 L 8.515625 -12.171875 L 11.140625 -18.703125 L 13.078125 -18.703125 L 13.40625 -19.5625 L 10.359375 -19.5625 L 12.046875 -23.71875 L 14.0625 -23.71875 L 15.09375 -26.3125 L 12.046875 -26.3125 L 13.5625 -30.046875 C 13.5625 -30.078125 13.566406 -30.101562 13.578125 -30.125 C 13.597656 -30.15625 13.609375 -30.1875 13.609375 -30.21875 L 11.875 -30.21875 C 11.9375 -30.351562 12 -30.492188 12.0625 -30.640625 C 12.132812 -30.796875 12.195312 -30.941406 12.25 -31.078125 L 17.390625 -31.078125 C 17.609375 -31.546875 17.828125 -31.941406 18.046875 -32.265625 C 18.265625 -32.597656 18.5 -32.859375 18.75 -33.046875 C 18.832031 -33.109375 18.921875 -33.175781 19.015625 -33.25 C 19.109375 -33.332031 19.210938 -33.40625 19.328125 -33.46875 C 19.378906 -33.488281 19.429688 -33.515625 19.484375 -33.546875 C 19.535156 -33.578125 19.578125 -33.601562 19.609375 -33.625 L 18.421875 -33.625 C 19.179688 -34.09375 20.03125 -34.328125 20.96875 -34.328125 C 21.894531 -34.328125 22.742188 -34.09375 23.515625 -33.625 L 24.75 -33.625 C 25.789062 -33.019531 26.515625 -32.171875 26.921875 -31.078125 L 21.78125 -31.078125 C 21.8125 -30.992188 21.835938 -30.914062 21.859375 -30.84375 C 21.890625 -30.78125 21.921875 -30.722656 21.953125 -30.671875 C 21.984375 -30.585938 22.050781 -30.4375 22.15625 -30.21875 L 23.921875 -30.21875 C 23.921875 -30.1875 23.925781 -30.15625 23.9375 -30.125 C 23.957031 -30.101562 23.96875 -30.078125 23.96875 -30.046875 L 25.484375 -26.3125 L 28.53125 -26.3125 L 29.59375 -23.71875 L 27.578125 -23.71875 L 29.265625 -19.5625 L 32.3125 -19.5625 L 32.640625 -18.703125 L 30.75 -18.703125 L 33.375 -12.171875 L 31.203125 -12.171875 L 32.234375 -9.578125 L 35.484375 -9.578125 L 37.703125 -4.109375 L 35.359375 -4.109375 L 36.375 -1.5625 C 36.375 -1.5625 36.375 -1.546875 36.375 -1.515625 Z M 18.78125 -5.1875 L 18.78125 -4.765625 L 25.6875 -4.765625 L 25.6875 -5.1875 Z M 11.640625 -2.921875 L 11.640625 -2.46875 L 16.15625 -2.46875 L 16.15625 -2.921875 Z M 11.640625 -2.921875 "/></g></g></g><g fill="#7f99b2" fill-opacity="1"><g transform="translate(530.19398, 155.204618)"><g><path d="M 31.40625 -19.984375 L 33.921875 -19.984375 L 33.921875 -13.6875 C 33.921875 -13.65625 33.921875 -13.617188 33.921875 -13.578125 C 33.921875 -13.546875 33.921875 -13.5 33.921875 -13.4375 L 31.609375 -13.4375 C 31.609375 -12.539062 31.566406 -11.691406 31.484375 -10.890625 L 33.34375 -10.890625 C 33.207031 -9.679688 33.039062 -8.585938 32.84375 -7.609375 C 32.738281 -7.222656 32.625 -6.835938 32.5 -6.453125 C 32.375 -6.066406 32.226562 -5.710938 32.0625 -5.390625 L 29.796875 -5.390625 C 29.472656 -4.585938 29.066406 -3.898438 28.578125 -3.328125 C 28.515625 -3.222656 28.441406 -3.128906 28.359375 -3.046875 C 28.273438 -2.960938 28.207031 -2.894531 28.15625 -2.84375 L 30.09375 -2.84375 C 29.820312 -2.539062 29.503906 -2.25 29.140625 -1.96875 L 25.359375 -1.96875 C 24.679688 -1.445312 23.984375 -1.050781 23.265625 -0.78125 C 21.835938 -0.226562 20.164062 0.046875 18.25 0.046875 L 4.1875 0.046875 C 2.820312 0.046875 1.796875 -0.546875 1.109375 -1.734375 C 1.078125 -1.785156 1.054688 -1.832031 1.046875 -1.875 C 1.035156 -1.914062 1.015625 -1.945312 0.984375 -1.96875 L 4.8125 -1.96875 C 4.726562 -2.101562 4.664062 -2.238281 4.625 -2.375 C 4.582031 -2.519531 4.535156 -2.675781 4.484375 -2.84375 L 2.546875 -2.84375 C 2.546875 -2.863281 2.535156 -2.882812 2.515625 -2.90625 C 2.503906 -2.9375 2.5 -2.96875 2.5 -3 L 2.5 -5.390625 L 4.765625 -5.390625 L 4.765625 -10.890625 L 2.953125 -10.890625 L 2.953125 -13.4375 L 5.21875 -13.4375 L 5.265625 -19.984375 L 2.75 -19.984375 L 2.75 -20.84375 L 4.734375 -20.84375 L 4.734375 -25 L 0.984375 -25 L 0.984375 -27.578125 L 5.21875 -27.578125 L 5.265625 -31.078125 C 5.265625 -31.128906 5.273438 -31.195312 5.296875 -31.28125 C 5.328125 -31.363281 5.359375 -31.429688 5.390625 -31.484375 L 1.234375 -31.484375 C 1.265625 -31.597656 1.304688 -31.703125 1.359375 -31.796875 C 1.410156 -31.890625 1.453125 -31.992188 1.484375 -32.109375 C 1.535156 -32.160156 1.570312 -32.207031 1.59375 -32.25 C 1.625 -32.289062 1.65625 -32.328125 1.6875 -32.359375 L 5.75 -32.359375 C 6.382812 -33.253906 7.273438 -33.742188 8.421875 -33.828125 L 8.421875 -33.875 L 22.78125 -33.875 C 24.664062 -33.875 26.320312 -33.597656 27.75 -33.046875 C 28.269531 -32.828125 28.734375 -32.597656 29.140625 -32.359375 L 25.078125 -32.359375 C 25.429688 -32.140625 25.816406 -31.847656 26.234375 -31.484375 L 30.375 -31.484375 C 30.539062 -31.347656 30.695312 -31.195312 30.84375 -31.03125 C 31 -30.875 31.144531 -30.710938 31.28125 -30.546875 C 31.96875 -29.691406 32.488281 -28.703125 32.84375 -27.578125 L 28.609375 -27.578125 C 28.691406 -27.359375 28.765625 -27.132812 28.828125 -26.90625 C 28.898438 -26.675781 28.960938 -26.453125 29.015625 -26.234375 C 29.078125 -26.035156 29.128906 -25.832031 29.171875 -25.625 C 29.210938 -25.425781 29.242188 -25.21875 29.265625 -25 L 33.015625 -25 C 33.203125 -23.757812 33.320312 -22.375 33.375 -20.84375 L 31.359375 -20.84375 C 31.390625 -20.726562 31.40625 -20.613281 31.40625 -20.5 C 31.40625 -20.394531 31.40625 -20.273438 31.40625 -20.140625 Z M 27.828125 -13.4375 L 27.828125 -19.984375 L 17.71875 -19.984375 L 17.71875 -20.765625 C 17.71875 -20.785156 17.71875 -20.796875 17.71875 -20.796875 C 17.71875 -20.796875 17.71875 -20.8125 17.71875 -20.84375 L 27.296875 -20.84375 C 27.296875 -21.5 27.273438 -22.113281 27.234375 -22.6875 C 27.191406 -23.269531 27.117188 -23.78125 27.015625 -24.21875 C 26.984375 -24.351562 26.953125 -24.488281 26.921875 -24.625 C 26.898438 -24.757812 26.859375 -24.882812 26.796875 -25 L 23.0625 -25 C 22.875 -25.570312 22.65625 -26.007812 22.40625 -26.3125 C 22.070312 -26.800781 21.566406 -27.171875 20.890625 -27.421875 C 20.804688 -27.453125 20.722656 -27.476562 20.640625 -27.5 C 20.554688 -27.53125 20.457031 -27.554688 20.34375 -27.578125 L 24.625 -27.578125 C 24.351562 -27.640625 24.054688 -27.691406 23.734375 -27.734375 C 23.421875 -27.773438 23.070312 -27.796875 22.6875 -27.796875 L 11.3125 -27.796875 C 11.3125 -27.796875 11.28125 -27.722656 11.21875 -27.578125 L 6.984375 -27.578125 C 6.984375 -27.554688 6.984375 -27.546875 6.984375 -27.546875 L 6.984375 -25 L 10.734375 -25 L 10.734375 -20.84375 L 8.75 -20.84375 L 8.75 -19.984375 L 11.265625 -19.984375 L 11.265625 -13.4375 L 8.96875 -13.4375 L 8.96875 -10.890625 L 10.8125 -10.890625 L 10.8125 -8.84375 L 19.109375 -8.84375 L 19.109375 -7.484375 L 10.8125 -7.484375 L 10.8125 -6.296875 C 10.8125 -6.210938 10.816406 -6.15625 10.828125 -6.125 C 10.847656 -6.09375 10.859375 -6.078125 10.859375 -6.078125 L 22.28125 -6.078125 C 22.75 -6.078125 23.1875 -6.101562 23.59375 -6.15625 C 24.007812 -6.21875 24.378906 -6.300781 24.703125 -6.40625 C 25.335938 -6.65625 25.847656 -7.023438 26.234375 -7.515625 C 26.640625 -8.066406 26.925781 -8.78125 27.09375 -9.65625 C 27.144531 -9.851562 27.175781 -10.050781 27.1875 -10.25 C 27.207031 -10.457031 27.226562 -10.671875 27.25 -10.890625 L 25.40625 -10.890625 C 25.488281 -11.546875 25.53125 -12.273438 25.53125 -13.078125 L 25.53125 -13.4375 Z M 13.859375 -13.234375 L 13.859375 -12.828125 L 22.859375 -12.828125 L 22.859375 -13.234375 Z M 10.078125 -17.140625 L 10.078125 -16.6875 L 19.03125 -16.6875 L 19.03125 -17.140625 Z M 11.015625 -26.796875 L 11.015625 -26.34375 L 16.734375 -26.34375 L 16.734375 -26.796875 Z M 11.015625 -26.796875 "/></g></g></g><g fill="#7f99b2" fill-opacity="1"><g transform="translate(567.522684, 155.204618)"><g><path d="M 34.90625 -18.828125 L 32.6875 -18.828125 L 32.6875 -17.84375 L 34.203125 -17.84375 L 34.203125 -12.984375 L 34.90625 -12.984375 L 34.90625 -12.875 C 34.90625 -11.851562 34.863281 -10.90625 34.78125 -10.03125 L 33.546875 -10.03125 C 33.515625 -9.457031 33.457031 -8.921875 33.375 -8.421875 C 33.289062 -7.929688 33.195312 -7.453125 33.09375 -6.984375 C 33.0625 -6.710938 33.003906 -6.453125 32.921875 -6.203125 C 32.847656 -5.960938 32.769531 -5.71875 32.6875 -5.46875 L 31.078125 -5.46875 C 31.023438 -5.300781 30.960938 -5.132812 30.890625 -4.96875 C 30.828125 -4.8125 30.753906 -4.648438 30.671875 -4.484375 L 33.375 -4.484375 C 33.070312 -3.878906 32.757812 -3.359375 32.4375 -2.921875 C 32 -2.398438 31.492188 -1.929688 30.921875 -1.515625 L 28.6875 -1.515625 C 28.414062 -1.359375 28.144531 -1.203125 27.875 -1.046875 C 27.601562 -0.898438 27.316406 -0.769531 27.015625 -0.65625 C 25.691406 -0.1875 24.140625 0.046875 22.359375 0.046875 L 12.328125 0.046875 C 10.523438 0.046875 8.992188 -0.1875 7.734375 -0.65625 C 7.429688 -0.769531 7.132812 -0.898438 6.84375 -1.046875 C 6.550781 -1.203125 6.285156 -1.359375 6.046875 -1.515625 L 8.265625 -1.515625 C 7.660156 -1.929688 7.148438 -2.410156 6.734375 -2.953125 C 6.578125 -3.171875 6.421875 -3.410156 6.265625 -3.671875 C 6.117188 -3.929688 5.976562 -4.203125 5.84375 -4.484375 L 2.0625 -4.484375 C 1.976562 -4.648438 1.898438 -4.8125 1.828125 -4.96875 C 1.765625 -5.132812 1.703125 -5.300781 1.640625 -5.46875 L 4.3125 -5.46875 C 4.226562 -5.71875 4.148438 -5.960938 4.078125 -6.203125 C 4.015625 -6.453125 3.957031 -6.710938 3.90625 -6.984375 C 3.789062 -7.421875 3.695312 -7.894531 3.625 -8.40625 C 3.5625 -8.914062 3.503906 -9.457031 3.453125 -10.03125 L 2.171875 -10.03125 C 2.097656 -10.90625 2.0625 -11.851562 2.0625 -12.875 L 2.0625 -12.984375 L 3.53125 -12.984375 L 3.53125 -17.84375 L 1.609375 -17.84375 L 1.609375 -18.828125 L 4.5625 -18.828125 L 4.5625 -21 C 4.5625 -23.082031 4.726562 -24.878906 5.0625 -26.390625 L 2.0625 -26.390625 C 2.082031 -26.472656 2.09375 -26.554688 2.09375 -26.640625 C 2.09375 -26.722656 2.109375 -26.789062 2.140625 -26.84375 C 2.328125 -27.769531 2.613281 -28.609375 3 -29.359375 L 4.9375 -29.359375 C 5.175781 -29.929688 5.476562 -30.4375 5.84375 -30.875 C 5.894531 -30.976562 5.96875 -31.070312 6.0625 -31.15625 C 6.15625 -31.238281 6.242188 -31.320312 6.328125 -31.40625 L 8.59375 -31.40625 C 9.332031 -32.175781 10.222656 -32.765625 11.265625 -33.171875 C 12.578125 -33.640625 14.125 -33.875 15.90625 -33.875 L 25.90625 -33.875 C 27.6875 -33.875 29.234375 -33.640625 30.546875 -33.171875 C 31.640625 -32.765625 32.539062 -32.175781 33.25 -31.40625 L 31 -31.40625 C 31.082031 -31.320312 31.160156 -31.238281 31.234375 -31.15625 C 31.316406 -31.070312 31.398438 -30.976562 31.484375 -30.875 C 31.847656 -30.4375 32.148438 -29.929688 32.390625 -29.359375 L 30.5 -29.359375 C 30.882812 -28.609375 31.171875 -27.769531 31.359375 -26.84375 C 31.390625 -26.789062 31.40625 -26.722656 31.40625 -26.640625 C 31.40625 -26.554688 31.421875 -26.472656 31.453125 -26.390625 L 34.453125 -26.390625 C 34.585938 -25.617188 34.695312 -24.785156 34.78125 -23.890625 C 34.863281 -23.003906 34.90625 -22.039062 34.90625 -21 Z M 26.5625 -17.84375 L 25.53125 -17.84375 L 25.53125 -18.828125 L 28.78125 -18.828125 L 28.78125 -21.703125 C 28.78125 -22.304688 28.765625 -22.859375 28.734375 -23.359375 C 28.703125 -23.867188 28.648438 -24.332031 28.578125 -24.75 C 28.429688 -25.40625 28.238281 -25.953125 28 -26.390625 L 25 -26.390625 C 24.96875 -26.441406 24.941406 -26.484375 24.921875 -26.515625 C 24.910156 -26.546875 24.894531 -26.570312 24.875 -26.59375 C 24.59375 -26.976562 24.191406 -27.28125 23.671875 -27.5 C 23.398438 -27.582031 23.085938 -27.648438 22.734375 -27.703125 C 22.378906 -27.765625 21.984375 -27.796875 21.546875 -27.796875 L 11.921875 -27.796875 C 11.484375 -27.796875 11.09375 -27.765625 10.75 -27.703125 C 10.40625 -27.648438 10.097656 -27.582031 9.828125 -27.5 C 9.273438 -27.28125 8.863281 -26.976562 8.59375 -26.59375 C 8.5625 -26.570312 8.539062 -26.546875 8.53125 -26.515625 C 8.519531 -26.484375 8.5 -26.441406 8.46875 -26.390625 L 11.46875 -26.390625 C 11.195312 -25.953125 11.003906 -25.40625 10.890625 -24.75 C 10.804688 -24.332031 10.75 -23.867188 10.71875 -23.359375 C 10.695312 -22.859375 10.6875 -22.304688 10.6875 -21.703125 L 10.6875 -18.828125 L 18.875 -18.828125 L 18.875 -17.84375 L 9.625 -17.84375 L 9.625 -12.984375 L 8.140625 -12.984375 L 8.140625 -12.125 C 8.140625 -11.351562 8.179688 -10.65625 8.265625 -10.03125 L 9.53125 -10.03125 C 9.5625 -9.863281 9.582031 -9.695312 9.59375 -9.53125 C 9.613281 -9.375 9.632812 -9.222656 9.65625 -9.078125 C 9.789062 -8.285156 10.023438 -7.6875 10.359375 -7.28125 C 10.628906 -6.84375 11.023438 -6.539062 11.546875 -6.375 C 12.097656 -6.175781 12.8125 -6.078125 13.6875 -6.078125 L 23.3125 -6.078125 C 24.21875 -6.078125 24.914062 -6.175781 25.40625 -6.375 C 25.957031 -6.539062 26.367188 -6.84375 26.640625 -7.28125 C 26.804688 -7.5 26.941406 -7.765625 27.046875 -8.078125 C 27.160156 -8.390625 27.257812 -8.722656 27.34375 -9.078125 C 27.363281 -9.222656 27.378906 -9.375 27.390625 -9.53125 C 27.410156 -9.695312 27.4375 -9.863281 27.46875 -10.03125 L 28.6875 -10.03125 C 28.71875 -10.332031 28.738281 -10.660156 28.75 -11.015625 C 28.769531 -11.367188 28.78125 -11.738281 28.78125 -12.125 L 28.78125 -12.984375 L 26.5625 -12.984375 Z M 24.21875 -10.359375 L 24.21875 -10.890625 L 18.21875 -10.890625 L 18.21875 -10.359375 Z M 16.359375 -8.34375 L 16.359375 -8.640625 L 12.453125 -8.640625 L 12.453125 -8.34375 Z M 24.21875 -23.796875 L 24.21875 -24.578125 L 16.40625 -24.578125 L 16.40625 -23.796875 Z M 17.1875 -13.734375 L 17.1875 -14.140625 L 11.421875 -14.140625 L 11.421875 -13.734375 Z M 17.1875 -13.734375 "/></g></g></g></svg>