<svg xmlns="http://www.w3.org/2000/svg" xmlns:xlink="http://www.w3.org/1999/xlink" width="1717" zoomAndPan="magnify" viewBox="0 0 1287.75 233.249991" height="311" preserveAspectRatio="xMidYMid meet" version="1.0"><defs><clipPath id="c63217db08"><path d="M 1.9375 0 L 1285.5625 0 L 1285.5625 232.503906 L 1.9375 232.503906 Z M 1.9375 0 " clip-rule="nonzero"/></clipPath><clipPath id="2b13ea5e35"><path d="M 831.773438 3 L 929.710938 3 L 929.710938 232.351562 L 831.773438 232.351562 Z M 831.773438 3 " clip-rule="nonzero"/></clipPath><clipPath id="8a069fab66"><path d="M 831.773438 3 L 929.710938 3 L 929.710938 232.351562 L 831.773438 232.351562 Z M 831.773438 3 " clip-rule="nonzero"/></clipPath><clipPath id="d14e989764"><path d="M 188.722656 48.773438 L 418.234375 48.773438 L 418.234375 232.503906 L 188.722656 232.503906 Z M 188.722656 48.773438 " clip-rule="nonzero"/></clipPath><clipPath id="50d5f0526b"><path d="M 188.722656 48.773438 L 418.234375 48.773438 L 418.234375 232.503906 L 188.722656 232.503906 Z M 188.722656 48.773438 " clip-rule="nonzero"/></clipPath><clipPath id="c47fd5a64a"><path d="M 418.382812 14.949219 L 647.894531 14.949219 L 647.894531 232.5 L 418.382812 232.5 Z M 418.382812 14.949219 " clip-rule="nonzero"/></clipPath><clipPath id="fe758fb41b"><path d="M 418.382812 14.949219 L 647.894531 14.949219 L 647.894531 232.5 L 418.382812 232.5 Z M 418.382812 14.949219 " clip-rule="nonzero"/></clipPath><clipPath id="3c33173634"><path d="M 648.042969 2.839844 L 831.953125 2.839844 L 831.953125 232.351562 L 648.042969 232.351562 Z M 648.042969 2.839844 " clip-rule="nonzero"/></clipPath><clipPath id="b8eae124ad"><path d="M 648.042969 2.839844 L 831.953125 2.839844 L 831.953125 232.351562 L 648.042969 232.351562 Z M 648.042969 2.839844 " clip-rule="nonzero"/></clipPath><clipPath id="7a75803b9f"><path d="M 1.9375 0 L 185.847656 0 L 185.847656 229.511719 L 1.9375 229.511719 Z M 1.9375 0 " clip-rule="nonzero"/></clipPath><clipPath id="b5a795a5e6"><path d="M 932.890625 0 L 1052.507812 0 L 1052.507812 229.511719 L 932.890625 229.511719 Z M 932.890625 0 " clip-rule="nonzero"/></clipPath><clipPath id="7c176b6006"><path d="M 932.890625 0 L 1052.507812 0 L 1052.507812 229.511719 L 932.890625 229.511719 Z M 932.890625 0 " clip-rule="nonzero"/></clipPath><clipPath id="279fc5db36"><path d="M 1055.308594 34.242188 L 1284.820312 34.242188 L 1284.820312 229.363281 L 1055.308594 229.363281 Z M 1055.308594 34.242188 " clip-rule="nonzero"/></clipPath><clipPath id="ee0d022b70"><path d="M 1055.308594 34.242188 L 1284.820312 34.242188 L 1284.820312 229.363281 L 1055.308594 229.363281 Z M 1055.308594 34.242188 " clip-rule="nonzero"/></clipPath></defs><g clip-path="url(#c63217db08)"><path fill="#ffffff" d="M 1.9375 0 L 1285.5625 0 L 1285.5625 232.503906 L 1.9375 232.503906 Z M 1.9375 0 " fill-opacity="1" fill-rule="nonzero"/></g><g clip-path="url(#2b13ea5e35)"><path fill="#ffffff" d="M 918.988281 68.609375 L 918.988281 79.511719 L 929.890625 79.511719 L 929.890625 232.132812 L 831.773438 232.132812 L 831.773438 79.511719 L 842.675781 79.511719 L 842.675781 68.609375 L 831.773438 68.609375 L 831.773438 25.003906 L 842.675781 25.003906 L 842.675781 14.101562 L 853.578125 14.101562 L 853.578125 3.199219 L 897.183594 3.199219 L 897.183594 14.101562 L 918.988281 14.101562 L 918.988281 25.003906 L 929.890625 25.003906 L 929.890625 68.609375 Z M 918.988281 68.609375 " fill-opacity="1" fill-rule="nonzero"/></g><path fill="#4d769c" d="M 842.675781 90.414062 L 918.988281 90.414062 L 918.988281 221.230469 L 842.675781 221.230469 Z M 897.183594 25.003906 L 897.183594 14.101562 L 853.578125 14.101562 L 853.578125 25.003906 L 842.675781 25.003906 L 842.675781 68.609375 L 853.578125 68.609375 L 853.578125 79.511719 L 897.183594 79.511719 L 897.183594 68.609375 L 918.988281 68.609375 L 918.988281 25.003906 Z M 897.183594 25.003906 " fill-opacity="1" fill-rule="nonzero"/><path fill="#269dc5" d="M 897.183594 35.902344 L 897.183594 57.707031 L 886.28125 57.707031 L 886.28125 68.609375 L 875.382812 68.609375 L 864.480469 57.707031 L 858.449219 54.453125 L 858.449219 42.28125 L 864.480469 35.902344 L 875.042969 25.003906 L 886.28125 25.003906 L 886.28125 35.902344 Z M 858.449219 202.480469 L 886.285156 210.332031 L 897.183594 210.332031 L 897.183594 101.3125 L 864.480469 101.316406 Z M 858.449219 202.480469 " fill-opacity="1" fill-rule="nonzero"/><path fill="#7dcbe2" d="M 886.285156 199.429688 L 886.285156 210.332031 L 853.578125 210.332031 L 853.578125 101.316406 L 864.480469 101.316406 L 864.480469 199.429688 Z M 875.382812 68.609375 L 875.382812 57.707031 L 864.480469 57.707031 L 864.480469 68.609375 Z M 875.382812 25.003906 L 864.480469 25.003906 L 864.480469 35.90625 L 875.382812 35.90625 Z M 864.480469 46.804688 L 864.480469 35.90625 L 853.578125 35.90625 L 853.578125 57.707031 L 864.480469 57.707031 Z M 864.480469 46.804688 " fill-opacity="1" fill-rule="nonzero"/><path fill="#7dcbe2" d="M 875.382812 155.824219 L 886.285156 155.824219 L 886.285156 166.726562 L 875.382812 166.726562 Z M 875.382812 134.019531 L 886.285156 134.019531 L 886.285156 123.117188 L 875.382812 123.117188 Z M 875.382812 35.90625 L 875.382812 46.804688 L 886.285156 46.804688 L 886.285156 35.90625 Z M 875.382812 35.90625 " fill-opacity="1" fill-rule="nonzero"/><g clip-path="url(#8a069fab66)"><path fill="#ffffff" d="M 918.988281 25.003906 L 929.890625 25.003906 L 929.890625 68.609375 L 918.988281 68.609375 Z M 897.1875 68.609375 L 897.1875 79.511719 L 853.578125 79.511719 L 853.578125 68.609375 L 842.679688 68.609375 L 842.679688 79.511719 L 831.777344 79.511719 L 831.777344 232.136719 L 929.890625 232.136719 L 929.890625 79.511719 L 918.988281 79.511719 L 918.988281 68.609375 Z M 918.988281 101.316406 L 918.988281 221.234375 L 842.679688 221.234375 L 842.679688 90.414062 L 918.988281 90.414062 Z M 897.1875 25.003906 L 897.1875 14.101562 L 918.988281 14.101562 L 918.988281 25.003906 Z M 875.382812 166.726562 L 886.285156 166.726562 L 886.285156 177.625 L 875.382812 177.625 Z M 875.382812 134.019531 L 886.285156 134.019531 L 886.285156 144.921875 L 875.382812 144.921875 Z M 875.382812 46.804688 L 886.285156 46.804688 L 886.285156 57.707031 L 875.382812 57.707031 Z M 864.480469 14.101562 L 853.578125 14.101562 L 853.578125 3.199219 L 908.089844 3.199219 L 908.089844 14.101562 Z M 853.578125 25.003906 L 842.679688 25.003906 L 842.679688 14.101562 L 853.578125 14.101562 Z M 842.679688 57.707031 L 842.679688 68.609375 L 831.777344 68.609375 L 831.777344 25.003906 L 842.679688 25.003906 Z M 842.679688 57.707031 " fill-opacity="1" fill-rule="nonzero"/></g><g clip-path="url(#d14e989764)"><path fill="#ffffff" d="M 418.371094 71.738281 L 418.371094 232.492188 L 315.027344 232.492188 L 315.027344 140.632812 L 292.0625 140.632812 L 292.0625 232.492188 L 188.722656 232.492188 L 188.722656 60.253906 L 200.203125 60.253906 L 200.203125 48.773438 L 395.40625 48.773438 L 395.40625 60.253906 L 406.890625 60.253906 L 406.890625 71.738281 Z M 418.371094 71.738281 " fill-opacity="1" fill-rule="nonzero"/></g><path fill="#4d769c" d="M 406.890625 83.21875 L 406.890625 221.011719 L 326.511719 221.011719 L 326.511719 129.152344 L 280.582031 129.152344 L 280.582031 221.011719 L 200.203125 221.011719 L 200.203125 71.738281 L 211.6875 71.738281 L 211.6875 60.253906 L 269.097656 60.253906 L 269.097656 71.738281 L 280.582031 71.738281 L 280.582031 60.253906 L 383.925781 60.253906 L 383.925781 71.738281 L 395.40625 71.738281 L 395.40625 83.21875 Z M 406.890625 83.21875 " fill-opacity="1" fill-rule="nonzero"/><path fill="#269dc5" d="M 383.925781 94.703125 L 383.925781 209.527344 L 337.992188 209.527344 L 337.992188 117.667969 L 269.097656 117.667969 L 269.097656 129.152344 L 257.617188 129.152344 L 257.617188 209.527344 L 234.65625 209.527344 L 215.355469 202.886719 L 218.308594 95.714844 L 234.65625 71.738281 L 257.617188 71.738281 L 257.617188 94.703125 L 269.097656 94.703125 L 269.097656 83.21875 L 292.0625 83.21875 L 292.0625 71.738281 L 349.476562 71.738281 L 349.476562 83.21875 L 372.441406 83.21875 L 372.441406 94.703125 Z M 383.925781 94.703125 " fill-opacity="1" fill-rule="nonzero"/><path fill="#7dcbe2" d="M 223.171875 83.222656 L 211.691406 83.222656 L 211.691406 209.527344 L 234.65625 209.527344 L 234.65625 198.046875 L 223.171875 198.046875 L 223.171875 94.703125 L 234.65625 94.703125 L 234.65625 71.738281 L 223.171875 71.738281 Z M 223.171875 83.222656 " fill-opacity="1" fill-rule="nonzero"/><path fill="#7dcbe2" d="M 360.960938 152.117188 L 360.960938 163.597656 L 372.445312 163.597656 L 372.445312 140.632812 L 360.960938 140.632812 Z M 360.960938 117.667969 L 372.445312 117.667969 L 372.445312 106.1875 L 360.960938 106.1875 Z M 360.960938 117.667969 " fill-opacity="1" fill-rule="nonzero"/><g clip-path="url(#50d5f0526b)"><path fill="#ffffff" d="M 406.890625 71.738281 L 418.375 71.738281 L 418.375 232.492188 L 315.03125 232.492188 L 315.03125 140.632812 L 292.066406 140.632812 L 292.066406 232.492188 L 188.722656 232.492188 L 188.722656 60.257812 L 200.207031 60.257812 L 200.207031 48.773438 L 395.410156 48.773438 L 395.410156 60.257812 L 406.890625 60.257812 Z M 395.410156 83.222656 L 395.410156 71.738281 L 383.925781 71.738281 L 383.925781 60.257812 L 280.585938 60.257812 L 280.585938 71.738281 L 269.101562 71.738281 L 269.101562 60.257812 L 211.691406 60.257812 L 211.691406 71.738281 L 200.207031 71.738281 L 200.207031 221.011719 L 280.585938 221.011719 L 280.585938 129.152344 L 326.515625 129.152344 L 326.515625 221.011719 L 406.890625 221.011719 L 406.890625 83.222656 Z M 360.960938 175.082031 L 360.960938 186.5625 L 372.445312 186.5625 L 372.445312 163.597656 L 360.960938 163.597656 Z M 360.960938 129.152344 L 372.445312 129.152344 L 372.445312 117.667969 L 360.960938 117.667969 Z M 360.960938 129.152344 " fill-opacity="1" fill-rule="nonzero"/></g><g clip-path="url(#c47fd5a64a)"><path fill="#ffffff" d="M 648.019531 39.121094 L 648.019531 232.492188 L 442.566406 232.492188 L 442.566406 208.320312 L 418.394531 208.320312 L 418.394531 99.550781 L 430.480469 99.550781 L 430.480469 87.464844 L 442.566406 87.464844 L 442.566406 39.121094 L 454.652344 39.121094 L 454.652344 27.035156 L 466.738281 27.035156 L 466.738281 14.949219 L 623.851562 14.949219 L 623.851562 27.035156 L 635.933594 27.035156 L 635.933594 39.121094 Z M 648.019531 39.121094 " fill-opacity="1" fill-rule="nonzero"/></g><path fill="#4d769c" d="M 623.851562 51.207031 L 623.851562 39.121094 L 611.765625 39.121094 L 611.765625 27.035156 L 478.824219 27.035156 L 478.824219 39.121094 L 466.738281 39.121094 L 466.738281 51.207031 L 454.652344 51.207031 L 454.652344 99.550781 L 442.566406 99.550781 L 442.566406 111.636719 L 430.480469 111.636719 L 430.480469 196.234375 L 442.566406 196.234375 L 442.566406 208.320312 L 454.652344 208.320312 L 454.652344 220.40625 L 635.933594 220.40625 L 635.933594 51.207031 Z M 527.164062 75.378906 L 563.421875 75.378906 L 563.421875 87.464844 L 527.164062 87.464844 Z M 563.421875 147.890625 L 551.335938 147.890625 L 551.335938 159.976562 L 527.164062 159.976562 L 527.164062 135.804688 L 563.421875 135.804688 Z M 563.421875 147.890625 " fill-opacity="1" fill-rule="nonzero"/><path fill="#269dc5" d="M 599.679688 51.207031 L 599.679688 39.121094 L 499.21875 39.121094 L 499.21875 51.207031 L 490.910156 51.207031 L 483.636719 55.941406 L 478.824219 63.292969 L 472.78125 68.097656 L 478.824219 75.378906 L 515.078125 75.378906 L 515.078125 63.292969 L 575.507812 63.292969 L 575.507812 99.550781 L 478.824219 99.550781 L 473.585938 105.59375 L 466.738281 111.636719 L 462.960938 123.71875 L 448.300781 132.90625 L 448.300781 177.453125 L 459.753906 184.152344 L 466.738281 191.503906 L 475.53125 201.011719 L 490.910156 208.320312 L 611.765625 208.320312 L 611.765625 51.207031 Z M 575.507812 159.976562 L 563.421875 159.976562 L 563.421875 172.0625 L 502.992188 172.0625 L 502.992188 159.976562 L 490.910156 159.976562 L 490.910156 135.804688 L 502.992188 135.804688 L 502.992188 123.71875 L 575.507812 123.71875 Z M 575.507812 159.976562 " fill-opacity="1" fill-rule="nonzero"/><path fill="#7dcbe2" d="M 490.910156 51.207031 L 490.910156 63.292969 L 478.824219 63.292969 L 478.824219 51.207031 Z M 478.824219 184.148438 L 466.738281 184.148438 L 466.738281 172.0625 L 454.65625 172.0625 L 454.65625 135.808594 L 466.738281 135.808594 L 466.738281 111.636719 L 454.65625 111.636719 L 454.65625 123.722656 L 442.570312 123.722656 L 442.570312 184.148438 L 454.65625 184.148438 L 454.65625 196.234375 L 466.738281 196.234375 L 466.738281 208.320312 L 490.910156 208.320312 L 490.910156 196.234375 L 478.824219 196.234375 Z M 478.824219 99.550781 L 466.738281 99.550781 L 466.738281 111.636719 L 478.824219 111.636719 Z M 466.738281 75.378906 L 478.824219 75.378906 L 478.824219 63.292969 L 466.738281 63.292969 Z M 466.738281 75.378906 " fill-opacity="1" fill-rule="nonzero"/><path fill="#7dcbe2" d="M 587.597656 99.550781 L 599.679688 99.550781 L 599.679688 135.808594 L 587.597656 135.808594 Z M 587.597656 63.292969 L 587.597656 75.378906 L 599.679688 75.378906 L 599.679688 63.292969 Z M 587.597656 63.292969 " fill-opacity="1" fill-rule="nonzero"/><g clip-path="url(#fe758fb41b)"><path fill="#ffffff" d="M 551.339844 75.378906 L 563.425781 75.378906 L 563.425781 87.464844 L 527.167969 87.464844 L 527.167969 75.378906 Z M 539.253906 135.808594 L 527.167969 135.808594 L 527.167969 159.976562 L 551.339844 159.976562 L 551.339844 147.894531 L 563.425781 147.894531 L 563.425781 135.808594 Z M 587.597656 147.894531 L 587.597656 172.0625 L 599.679688 172.0625 L 599.679688 135.808594 L 587.597656 135.808594 Z M 648.023438 39.121094 L 648.023438 232.492188 L 442.570312 232.492188 L 442.570312 220.40625 L 430.480469 220.40625 L 430.484375 208.320312 L 418.398438 208.320312 L 418.398438 99.550781 L 430.484375 99.550781 L 430.484375 87.464844 L 442.570312 87.464844 L 442.570312 39.121094 L 454.65625 39.121094 L 454.65625 27.035156 L 466.738281 27.035156 L 466.738281 14.953125 L 623.851562 14.953125 L 623.851562 27.035156 L 635.9375 27.035156 L 635.9375 39.121094 Z M 635.9375 51.207031 L 623.851562 51.207031 L 623.851562 39.121094 L 611.765625 39.121094 L 611.765625 27.035156 L 478.824219 27.035156 L 478.824219 39.121094 L 466.738281 39.121094 L 466.738281 51.207031 L 454.65625 51.207031 L 454.65625 99.550781 L 442.570312 99.550781 L 442.570312 111.636719 L 430.484375 111.636719 L 430.484375 196.234375 L 442.570312 196.234375 L 442.570312 208.320312 L 454.65625 208.320312 L 454.65625 220.40625 L 635.9375 220.40625 Z M 587.597656 87.464844 L 599.679688 87.464844 L 599.679688 75.378906 L 587.597656 75.378906 Z M 587.597656 87.464844 " fill-opacity="1" fill-rule="nonzero"/></g><g clip-path="url(#3c33173634)"><path fill="#ffffff" d="M 822.582031 21.214844 L 813.394531 21.214844 L 813.394531 12.027344 L 804.207031 12.027344 L 804.207031 2.839844 L 648.042969 2.839844 L 648.042969 232.492188 L 822.582031 232.492188 L 822.582031 223.308594 L 831.765625 223.308594 L 831.765625 113.074219 L 822.582031 113.074219 L 822.582031 103.886719 L 831.765625 103.886719 L 831.765625 21.214844 Z M 730.71875 159.003906 L 730.71875 140.632812 L 739.90625 140.632812 L 739.90625 168.191406 L 730.71875 168.191406 Z M 730.71875 159.003906 " fill-opacity="1" fill-rule="nonzero"/></g><path fill="#4d769c" d="M 813.390625 103.886719 L 813.390625 94.699219 L 822.578125 94.699219 L 822.578125 30.398438 L 813.390625 30.398438 L 813.390625 21.210938 L 804.207031 21.210938 L 804.207031 12.027344 L 657.230469 12.027344 L 657.230469 223.304688 L 813.390625 223.304688 L 813.390625 214.121094 L 822.578125 214.121094 L 822.578125 122.257812 L 813.390625 122.257812 L 813.390625 113.074219 L 804.207031 113.074219 L 804.207031 103.886719 Z M 721.53125 67.144531 L 758.277344 67.144531 L 758.277344 85.515625 L 721.53125 85.515625 Z M 749.089844 177.375 L 721.53125 177.375 L 721.53125 131.445312 L 749.089844 131.445312 L 749.089844 140.632812 L 758.277344 140.632812 L 758.277344 168.191406 L 749.089844 168.191406 Z M 749.089844 177.375 " fill-opacity="1" fill-rule="nonzero"/><path fill="#269dc5" d="M 795.019531 103.886719 L 795.019531 94.699219 L 804.207031 94.699219 L 804.207031 39.585938 L 795.019531 39.585938 L 790.429688 34.992188 L 776.648438 21.210938 L 684.789062 21.210938 L 675.523438 207.070312 L 693.976562 214.121094 L 795.019531 214.121094 L 795.019531 204.933594 L 804.207031 204.933594 L 804.207031 131.445312 L 795.019531 131.445312 L 795.019531 122.257812 L 785.835938 122.257812 L 785.835938 103.886719 Z M 767.460938 177.375 L 758.277344 177.375 L 758.277344 186.5625 L 703.160156 186.5625 L 703.160156 122.257812 L 758.277344 122.257812 L 758.277344 131.445312 L 767.460938 131.445312 Z M 767.460938 85.515625 L 758.277344 85.515625 L 758.277344 94.699219 L 703.160156 94.699219 L 703.160156 57.957031 L 758.277344 57.957031 L 758.277344 67.144531 L 767.460938 67.144531 Z M 767.460938 85.515625 " fill-opacity="1" fill-rule="nonzero"/><path fill="#7dcbe2" d="M 785.835938 140.632812 L 795.023438 140.632812 L 795.023438 159.003906 L 785.835938 159.003906 Z M 785.835938 57.957031 L 785.835938 76.328125 L 795.023438 76.328125 L 795.023438 48.769531 L 785.835938 48.769531 Z M 785.835938 30.398438 L 785.835938 39.585938 L 795.023438 39.585938 L 795.023438 30.398438 Z M 776.648438 21.214844 L 776.648438 30.398438 L 785.835938 30.398438 L 785.835938 21.214844 Z M 776.648438 21.214844 " fill-opacity="1" fill-rule="nonzero"/><path fill="#7dcbe2" d="M 693.976562 204.933594 L 693.976562 214.121094 L 666.417969 214.121094 L 666.417969 21.214844 L 684.789062 21.214844 L 684.789062 204.933594 Z M 693.976562 204.933594 " fill-opacity="1" fill-rule="nonzero"/><g clip-path="url(#b8eae124ad)"><path fill="#ffffff" d="M 822.582031 131.445312 L 822.582031 122.261719 L 831.765625 122.261719 L 831.765625 223.308594 L 822.582031 223.308594 L 822.582031 232.492188 L 648.042969 232.492188 L 648.042969 2.839844 L 804.207031 2.839844 L 804.207031 12.027344 L 657.230469 12.027344 L 657.230469 223.308594 L 813.394531 223.308594 L 813.394531 214.121094 L 822.582031 214.121094 Z M 822.582031 21.214844 L 813.394531 21.214844 L 813.394531 30.398438 L 822.582031 30.398438 L 822.582031 94.703125 L 813.394531 94.703125 L 813.394531 103.886719 L 804.207031 103.886719 L 804.207031 113.074219 L 813.394531 113.074219 L 813.394531 122.261719 L 831.765625 122.261719 L 831.765625 113.074219 L 822.582031 113.074219 L 822.582031 103.886719 L 831.765625 103.886719 L 831.765625 21.214844 Z M 813.394531 21.214844 L 813.394531 12.027344 L 804.207031 12.027344 L 804.207031 21.214844 Z M 785.835938 168.191406 L 785.835938 186.5625 L 795.023438 186.5625 L 795.023438 159.003906 L 785.835938 159.003906 Z M 785.835938 85.515625 L 795.023438 85.515625 L 795.023438 76.328125 L 785.835938 76.328125 Z M 749.09375 140.632812 L 758.277344 140.632812 L 758.277344 168.191406 L 749.09375 168.191406 L 749.09375 177.375 L 721.535156 177.375 L 721.535156 131.445312 L 749.09375 131.445312 Z M 739.90625 140.632812 L 730.71875 140.632812 L 730.71875 168.191406 L 739.90625 168.191406 Z M 739.90625 67.144531 L 721.535156 67.144531 L 721.535156 85.515625 L 758.277344 85.515625 L 758.277344 67.144531 Z M 739.90625 67.144531 " fill-opacity="1" fill-rule="nonzero"/></g><g clip-path="url(#7a75803b9f)"><path fill="#ffffff" d="M 185.660156 27.558594 L 185.660156 229.652344 L 93.800781 229.652344 L 93.800781 137.792969 L 84.613281 137.792969 L 84.613281 229.652344 L 1.9375 229.652344 L 1.9375 18.371094 L 11.125 18.371094 L 11.125 9.1875 L 20.3125 9.1875 L 20.3125 0 L 158.101562 0 L 158.101562 9.1875 L 167.289062 9.1875 L 167.289062 18.371094 L 176.476562 18.371094 L 176.476562 27.558594 Z M 185.660156 27.558594 " fill-opacity="1" fill-rule="nonzero"/></g><path fill="#4d769c" d="M 167.289062 36.746094 L 167.289062 27.558594 L 158.101562 27.558594 L 158.101562 18.371094 L 148.917969 18.371094 L 148.917969 9.1875 L 29.496094 9.1875 L 29.496094 18.371094 L 20.3125 18.371094 L 20.3125 27.558594 L 11.125 27.558594 L 11.125 220.464844 L 75.429688 220.464844 L 75.429688 128.605469 L 102.984375 128.605469 L 102.984375 220.464844 L 176.476562 220.464844 L 176.476562 36.746094 C 176.476562 36.746094 167.289062 36.746094 167.289062 36.746094 Z M 102.984375 64.300781 L 102.984375 82.675781 L 75.429688 82.675781 L 75.429688 64.300781 Z M 102.984375 64.300781 " fill-opacity="1" fill-rule="nonzero"/><path fill="#7dcbe2" d="M 139.730469 128.605469 L 148.917969 128.605469 L 148.917969 156.164062 L 139.730469 156.164062 Z M 139.730469 55.117188 L 139.730469 73.488281 L 148.917969 73.488281 L 148.917969 45.929688 L 139.730469 45.929688 Z M 139.730469 27.558594 L 139.730469 36.746094 L 148.917969 36.746094 L 148.917969 27.558594 Z M 130.542969 18.371094 L 130.542969 27.558594 L 139.730469 27.558594 L 139.730469 18.371094 Z M 130.542969 18.371094 " fill-opacity="1" fill-rule="nonzero"/><path fill="#269dc5" d="M 148.917969 36.746094 L 139.730469 27.558594 L 135.136719 25.136719 L 130.542969 18.371094 L 57.054688 18.371094 L 43.410156 27.558594 L 38.683594 34.394531 L 34.222656 36.746094 L 28.0625 204.285156 L 47.871094 211.28125 L 57.054688 211.28125 L 57.054688 119.417969 L 121.359375 119.417969 L 121.359375 211.28125 L 158.101562 211.28125 L 158.101562 36.746094 Z M 121.359375 91.859375 L 57.054688 91.859375 L 57.054688 64.300781 L 66.242188 64.300781 L 66.242188 55.117188 L 112.171875 55.117188 L 112.171875 64.300781 L 121.359375 64.300781 Z M 121.359375 91.859375 " fill-opacity="1" fill-rule="nonzero"/><path fill="#7dcbe2" d="M 57.054688 18.371094 L 57.054688 45.929688 L 47.871094 45.929688 L 47.871094 64.304688 L 38.683594 64.304688 L 38.683594 202.09375 L 47.871094 202.09375 L 47.871094 211.28125 L 20.3125 211.28125 L 20.3125 36.746094 L 29.496094 36.746094 L 29.496094 27.558594 L 38.683594 27.558594 L 38.683594 18.371094 Z M 57.054688 18.371094 " fill-opacity="1" fill-rule="nonzero"/><path fill="#7dcbe2" d="M 139.730469 128.605469 L 148.917969 128.605469 L 148.917969 156.164062 L 139.730469 156.164062 Z M 139.730469 55.117188 L 139.730469 73.488281 L 148.917969 73.488281 L 148.917969 45.929688 L 139.730469 45.929688 Z M 139.730469 27.558594 L 139.730469 36.746094 L 148.917969 36.746094 L 148.917969 27.558594 Z M 130.542969 18.371094 L 130.542969 27.558594 L 139.730469 27.558594 L 139.730469 18.371094 Z M 130.542969 18.371094 " fill-opacity="1" fill-rule="nonzero"/><g clip-path="url(#b5a795a5e6)"><path fill="#ffffff" d="M 1052.308594 73.488281 L 1052.308594 137.789062 L 1043.125 137.789062 L 1043.125 220.464844 L 1033.9375 220.464844 L 1033.9375 229.648438 L 942.078125 229.648438 L 942.078125 220.464844 L 932.890625 220.464844 L 932.890625 146.976562 L 960.449219 146.976562 L 960.449219 137.789062 L 942.078125 137.789062 L 942.078125 73.488281 L 960.449219 73.488281 L 960.449219 0.00390625 L 1043.125 0.00390625 L 1043.125 73.488281 Z M 1052.308594 73.488281 " fill-opacity="1" fill-rule="nonzero"/></g><path fill="#4d769c" d="M 1043.125 82.675781 L 1043.125 128.605469 L 1033.9375 128.605469 L 1033.9375 211.277344 L 1024.75 211.277344 L 1024.75 220.464844 L 951.265625 220.464844 L 951.265625 211.277344 L 942.078125 211.277344 L 942.078125 156.164062 L 969.636719 156.164062 L 969.636719 128.605469 L 951.265625 128.605469 L 951.265625 82.675781 L 969.636719 82.675781 L 969.636719 9.1875 L 1033.9375 9.1875 L 1033.9375 82.675781 Z M 1043.125 82.675781 " fill-opacity="1" fill-rule="nonzero"/><path fill="#269dc5" d="M 1033.9375 91.859375 L 1033.9375 119.417969 L 1015.566406 119.417969 L 1015.566406 202.09375 L 1006.378906 202.09375 L 1006.378906 211.277344 L 960.449219 211.277344 L 960.449219 202.09375 L 954.6875 168.859375 L 969.636719 174.535156 L 969.636719 183.71875 L 978.820312 183.71875 L 978.820312 119.417969 L 969.636719 119.417969 L 964.863281 97.410156 L 978.820312 91.859375 L 988.011719 18.375 L 1015.566406 18.375 L 1015.566406 91.859375 Z M 1033.9375 91.859375 " fill-opacity="1" fill-rule="nonzero"/><path fill="#7dcbe2" d="M 978.824219 128.605469 L 978.824219 183.71875 L 988.011719 183.71875 L 988.011719 119.417969 L 978.824219 119.417969 Z M 978.824219 27.558594 L 978.824219 91.863281 L 988.011719 91.863281 L 988.011719 18.375 L 978.824219 18.375 Z M 960.453125 91.863281 L 960.453125 119.417969 L 969.636719 119.417969 L 969.636719 101.046875 L 978.824219 101.046875 L 978.824219 91.863281 Z M 951.265625 165.347656 L 951.265625 202.09375 L 960.453125 202.09375 L 960.453125 174.535156 L 969.636719 174.535156 L 969.636719 165.347656 Z M 951.265625 165.347656 " fill-opacity="1" fill-rule="nonzero"/><path fill="#7dcbe2" d="M 997.195312 165.347656 L 997.195312 174.535156 L 1006.382812 174.535156 L 1006.382812 156.164062 L 997.195312 156.164062 Z M 997.195312 64.304688 L 997.195312 73.488281 L 1006.382812 73.488281 L 1006.382812 55.117188 L 997.195312 55.117188 Z M 997.195312 64.304688 " fill-opacity="1" fill-rule="nonzero"/><g clip-path="url(#7c176b6006)"><path fill="#ffffff" d="M 1043.125 73.488281 L 1052.3125 73.488281 L 1052.3125 137.789062 L 1043.125 137.789062 L 1043.125 220.464844 L 1033.941406 220.464844 L 1033.941406 229.648438 L 942.082031 229.648438 L 942.082031 220.464844 L 932.894531 220.464844 L 932.894531 146.976562 L 960.453125 146.976562 L 960.453125 137.789062 L 942.082031 137.789062 L 942.082031 73.488281 L 960.453125 73.488281 L 960.453125 0.00390625 L 1043.125 0.00390625 Z M 1033.941406 82.675781 L 1033.941406 9.1875 L 969.636719 9.1875 L 969.636719 82.675781 L 951.265625 82.675781 L 951.265625 128.605469 L 969.636719 128.605469 L 969.636719 156.164062 L 942.082031 156.164062 L 942.082031 211.277344 L 951.265625 211.277344 L 951.265625 220.464844 L 1024.753906 220.464844 L 1024.753906 211.277344 L 1033.941406 211.277344 L 1033.941406 128.605469 L 1043.125 128.605469 L 1043.125 82.675781 Z M 997.195312 146.976562 L 997.195312 156.164062 L 1006.382812 156.164062 L 1006.382812 137.789062 L 997.195312 137.789062 Z M 997.195312 55.117188 L 1006.382812 55.117188 L 1006.382812 45.933594 L 997.195312 45.933594 Z M 997.195312 55.117188 " fill-opacity="1" fill-rule="nonzero"/></g><g clip-path="url(#279fc5db36)"><path fill="#ffffff" d="M 1273.476562 126.207031 L 1273.476562 137.6875 L 1284.960938 137.6875 L 1284.960938 218.066406 L 1273.476562 218.066406 L 1273.476562 229.550781 L 1066.789062 229.550781 L 1066.789062 218.066406 L 1055.308594 218.066406 L 1055.308594 45.828125 L 1066.789062 45.828125 L 1066.789062 34.34375 L 1273.476562 34.34375 L 1273.476562 45.828125 L 1284.960938 45.828125 L 1284.960938 126.207031 Z M 1273.476562 126.207031 " fill-opacity="1" fill-rule="nonzero"/></g><path fill="#4d769c" d="M 1261.992188 137.6875 L 1261.992188 126.207031 L 1273.476562 126.207031 L 1273.476562 57.3125 L 1261.992188 57.3125 L 1261.992188 45.828125 L 1078.273438 45.828125 L 1078.273438 57.3125 L 1066.789062 57.3125 L 1066.789062 206.585938 L 1078.273438 206.585938 L 1078.273438 218.066406 L 1261.992188 218.066406 L 1261.992188 206.585938 L 1273.476562 206.585938 L 1273.476562 149.171875 L 1239.027344 149.171875 L 1239.027344 137.6875 Z M 1204.582031 172.136719 L 1147.167969 172.136719 L 1147.167969 149.171875 L 1204.582031 149.171875 Z M 1204.582031 172.136719 " fill-opacity="1" fill-rule="nonzero"/><path fill="#269dc5" d="M 1239.027344 137.6875 L 1239.027344 126.207031 L 1250.511719 126.207031 L 1250.511719 91.757812 L 1239.027344 68.792969 L 1227.546875 57.3125 L 1112.71875 57.3125 L 1091.820312 72.238281 L 1084.75 79.21875 L 1084.425781 183.621094 L 1095.496094 191.65625 L 1112.71875 206.585938 L 1250.511719 206.585938 L 1250.511719 160.652344 L 1216.0625 160.652344 L 1216.0625 183.621094 L 1124.203125 183.621094 L 1124.203125 137.6875 Z M 1124.203125 91.757812 L 1204.582031 91.757812 L 1204.582031 114.722656 L 1124.203125 114.722656 Z M 1124.203125 91.757812 " fill-opacity="1" fill-rule="nonzero"/><path fill="#7dcbe2" d="M 1089.753906 57.3125 L 1089.753906 68.792969 L 1078.273438 68.792969 L 1078.273438 195.101562 L 1089.753906 195.101562 L 1089.753906 206.585938 L 1112.71875 206.585938 L 1112.71875 195.101562 L 1101.238281 195.101562 L 1101.238281 183.621094 L 1089.753906 183.621094 L 1089.753906 80.277344 L 1101.238281 80.277344 L 1101.238281 68.792969 L 1112.71875 68.792969 L 1112.71875 57.3125 Z M 1089.753906 57.3125 " fill-opacity="1" fill-rule="nonzero"/><path fill="#7dcbe2" d="M 1250.511719 68.792969 L 1250.511719 91.757812 L 1227.546875 91.757812 L 1227.546875 80.277344 L 1239.027344 80.277344 L 1239.027344 68.792969 Z M 1227.546875 183.621094 L 1239.027344 183.621094 L 1239.027344 172.136719 L 1227.546875 172.136719 Z M 1227.546875 57.3125 L 1227.546875 68.792969 L 1239.027344 68.792969 L 1239.027344 57.3125 Z M 1227.546875 57.3125 " fill-opacity="1" fill-rule="nonzero"/><g clip-path="url(#ee0d022b70)"><path fill="#ffffff" d="M 1273.476562 45.828125 L 1284.960938 45.828125 L 1284.960938 126.207031 L 1273.476562 126.207031 L 1273.476562 57.3125 L 1261.992188 57.3125 L 1261.992188 45.828125 L 1078.273438 45.828125 L 1078.273438 57.3125 L 1066.789062 57.3125 L 1066.789062 206.585938 L 1078.273438 206.585938 L 1078.273438 218.066406 L 1261.992188 218.066406 L 1261.992188 206.585938 L 1273.476562 206.585938 L 1273.476562 149.171875 L 1239.027344 149.171875 L 1239.027344 137.6875 L 1261.992188 137.6875 L 1261.992188 126.207031 L 1273.476562 126.207031 L 1273.476562 137.6875 L 1284.960938 137.6875 L 1284.960938 218.066406 L 1273.476562 218.066406 L 1273.476562 229.550781 L 1066.789062 229.550781 L 1066.789062 218.066406 L 1055.308594 218.066406 L 1055.308594 45.828125 L 1066.789062 45.828125 L 1066.789062 34.34375 L 1273.476562 34.34375 Z M 1227.546875 183.621094 L 1239.027344 183.621094 L 1239.027344 195.101562 L 1227.546875 195.101562 Z M 1227.546875 91.757812 L 1239.027344 91.757812 L 1239.027344 103.242188 L 1227.546875 103.242188 Z M 1193.097656 149.171875 L 1204.582031 149.171875 L 1204.582031 172.136719 L 1147.167969 172.136719 L 1147.167969 149.171875 Z M 1193.097656 149.171875 " fill-opacity="1" fill-rule="nonzero"/></g></svg>